<svg width="164" height="164" viewBox="0 0 164 164" fill="none" xmlns="http://www.w3.org/2000/svg">
<mask id="mask0_270_373" style="mask-type:alpha" maskUnits="userSpaceOnUse" x="0" y="0" width="164" height="164">
<rect x="0.915527" width="163.084" height="163.084" rx="14.3687" fill="#580009"/>
</mask>
<g mask="url(#mask0_270_373)">
<g style="mix-blend-mode:screen" opacity="0.4">
<path d="M98.5749 171.411C97.4966 169.658 96.0589 167.232 95.1154 165.39C94.3516 165.705 93.3631 166.199 92.6443 166.603C90.892 165.076 88.5557 163.054 86.8484 161.436C88.376 163.638 90.4877 166.558 92.15 168.625C92.5095 169.614 93.0936 170.872 93.6327 171.77C94.8907 172.579 96.643 173.522 97.8561 174.331C100.013 176.038 102.933 178.285 105.18 179.857C104.101 178.689 102.663 177.117 101.72 175.859C102.978 176.128 104.685 176.533 105.943 176.802C103.697 175.23 100.732 173.118 98.5749 171.411Z" fill="#580009"/>
<path d="M77.5032 79.7996C77.3685 80.159 77.2337 80.5185 77.054 80.8779C77.3235 80.3388 77.5482 79.7547 77.8178 79.2155C77.7279 79.4402 77.5931 79.6199 77.5032 79.7996Z" fill="#580009"/>
<path d="M109.761 169.299C111.648 169.838 114.119 170.512 116.006 171.096C114.119 169.164 111.648 166.603 109.851 164.626C109.851 162.739 109.986 160.223 110.166 158.336C108.368 158.471 105.942 158.696 104.145 158.876C102.168 157.033 99.5174 154.607 97.5855 152.72C98.3043 155.101 99.2479 158.247 100.146 160.538C99.2928 161.392 98.2145 162.605 97.4507 163.548C99.4276 164.582 102.258 165.615 104.01 167.008C105.718 169.03 108.054 171.68 109.896 173.567C109.761 172.309 109.671 170.557 109.761 169.299Z" fill="#580009"/>
<path d="M78.7601 145.128C78.4007 142.702 77.9963 139.467 77.8166 137.041C77.0079 137.49 75.9745 138.119 75.2556 138.658C74.3121 136.681 73.099 134.031 72.2903 131.964C72.9193 134.794 73.8179 138.568 74.6266 141.309C74.8513 142.342 75.1208 143.735 75.4803 144.724L75.5252 144.858L76.1093 146.251C76.6035 147.15 77.2774 148.318 77.7717 149.217C79.0746 151.733 80.8718 155.057 82.3095 157.484C81.5906 155.686 80.6921 153.26 80.108 151.418C81.0964 151.823 82.3994 152.362 83.4327 152.721C81.995 150.475 80.063 147.464 78.7601 145.128Z" fill="#580009"/>
<path d="M80.7373 73.4654L79.2546 76.1612C78.8053 77.1047 78.3111 78.1381 77.8169 79.2164C79.03 77.0148 80.6025 74.2742 81.8605 72.2523C81.5011 72.6118 81.0069 73.0611 80.7373 73.4654Z" fill="#580009"/>
<path d="M77.0541 80.8789C76.1555 82.8558 75.3019 84.9226 74.583 86.6748C74.583 86.9893 74.5381 87.3937 74.6279 87.7082C75.3468 85.6414 76.2454 83.0805 77.0541 80.8789Z" fill="#580009"/>
<path d="M72.8743 103.343C72.2003 103.792 71.3467 104.466 70.7626 105.05C70.8974 102.938 71.122 100.108 71.4815 98.0412L70.8075 101.68C70.3582 105.499 69.9539 110.621 69.8191 114.44C69.9539 117.855 70.2235 122.393 70.5829 125.807C70.4481 123.965 70.2684 121.539 70.3133 119.697C70.8075 120.236 71.5264 120.91 72.1105 121.359C71.7061 118.664 71.2119 115.069 70.9873 112.374C71.4365 109.633 72.2003 105.994 72.8743 103.343Z" fill="#580009"/>
<path d="M92.0145 141.712C94.1262 142.341 96.9118 143.195 99.0235 143.824C97.6756 141.353 95.8784 138.028 94.5755 135.467C95.4741 133.041 96.777 129.896 97.8553 127.56C95.6089 127.784 92.6435 128.144 90.442 128.413C88.9593 126.257 87.0274 123.336 85.6346 121.09C85.4099 123.92 85.1853 127.739 85.1403 130.57C83.8374 131.693 82.0852 133.266 80.8721 134.524C82.4895 135.827 85.1404 137.129 86.3984 138.837C87.297 141.533 88.51 145.082 89.5434 147.688C90.2174 145.891 91.2058 143.464 92.0145 141.712Z" fill="#580009"/>
<path d="M153.747 163.952C155.184 165.031 157.027 166.513 158.374 167.682C158.689 165.48 159.048 162.515 159.273 160.268C161.205 158.741 163.811 156.719 165.788 155.191C163.676 154.607 160.801 153.888 158.644 153.349C157.925 151.013 156.892 147.868 156.083 145.531C154.78 147.778 153.028 150.743 151.77 153.035C149.434 153.349 146.288 153.798 143.952 154.158C145.57 155.82 147.726 158.022 149.299 159.774C148.849 161.976 148.31 164.941 147.906 167.142C149.658 166.199 151.994 164.896 153.747 163.952Z" fill="#580009"/>
<path d="M86.8914 94.178C86.2624 92.0663 85.4087 89.1908 84.9145 87.0342C83.7464 89.8648 82.2637 93.5939 81.2303 96.4694C79.6578 97.6825 77.5911 99.2999 76.1533 100.648C77.0968 102.086 78.9839 103.703 79.4781 105.365C79.3433 108.376 79.2534 112.374 79.2534 115.385C80.5564 113.273 82.4434 110.487 83.8812 108.465C85.858 109.184 88.4639 110.083 90.4408 110.757C89.8567 108.016 89.0929 104.332 88.5987 101.546C90.2611 98.9854 92.5525 95.5708 94.3497 93.0997C92.1481 93.4591 89.1379 93.8186 86.8914 94.178Z" fill="#580009"/>
<path d="M148.895 103.792C151.815 102.489 155.769 100.737 158.734 99.4789C161.565 101.007 165.339 103.073 168.169 104.691C167.72 101.725 167.091 97.8165 166.597 94.8512C168.843 93.0091 171.854 90.6278 174.145 88.7857C171 88.0669 166.777 87.1683 163.632 86.4944C162.149 83.9783 160.172 80.6086 158.644 78.0926C157.207 80.4738 155.32 83.6638 153.927 86.0451C150.602 86.4045 146.199 86.8987 142.874 87.3031C145.3 89.3249 148.49 92.0207 150.872 94.0874C150.243 97.0078 149.479 100.872 148.895 103.792Z" fill="#580009"/>
<path d="M148.895 70.7245C151.635 69.6912 155.32 68.2983 158.105 67.3099C160.936 68.5679 164.71 70.2752 167.495 71.6231C166.732 69.2868 165.743 66.1417 164.979 63.8503C166.777 62.5474 169.158 60.8401 170.91 59.5371C168.124 58.9531 164.35 58.2791 161.52 57.74C160.082 55.9877 158.105 53.6065 156.667 51.8992C155.589 53.5616 154.151 55.7182 153.073 57.3356C150.153 57.5603 146.289 57.9197 143.413 58.2342C145.57 59.7169 148.445 61.6937 150.602 63.1764C150.063 65.4229 149.389 68.4331 148.895 70.7245Z" fill="#580009"/>
<path d="M148.535 47.0019C150.602 46.3729 153.387 45.5641 155.454 44.9351C157.745 45.7439 160.801 46.8222 163.092 47.6758C162.238 46.2381 161.07 44.3511 160.127 42.9582C161.115 42.2843 162.463 41.4307 163.451 40.7118C161.474 40.3973 158.869 39.948 156.892 39.6784C155.724 38.8697 154.196 37.7914 152.983 37.0276C152.444 37.7914 151.68 38.7349 151.141 39.4538C149.164 39.5436 146.513 39.7233 144.536 39.9031C146.064 40.6669 148.086 41.7452 149.613 42.5539C149.299 43.8568 148.849 45.654 148.535 47.0019Z" fill="#580009"/>
<path d="M104.325 52.3486C105.448 50.866 106.931 48.8891 108.189 47.4963C110.3 46.2383 113.131 44.5759 115.287 43.4077C114.164 43.6324 112.637 43.9469 111.558 44.2164C112.681 43.3628 114.254 42.2845 115.467 41.5656C113.266 42.7338 110.345 44.3063 108.233 45.6092C107.02 46.2832 105.448 47.1818 104.325 47.9456C103.606 48.5296 102.752 49.3833 102.123 50.0572C100.236 51.7645 97.72 54.0559 95.9229 55.8531C97.765 54.5052 100.236 52.7081 102.123 51.45C102.707 51.7196 103.606 52.124 104.325 52.3486Z" fill="#580009"/>
<path d="M112.546 65.6473C111.558 68.0285 110.21 71.2185 109.311 73.6447C112.142 72.1171 115.961 70.0953 118.836 68.6126C121.487 69.4213 124.992 70.5446 127.642 71.3982C127.373 69.1518 127.013 66.1415 126.789 63.895C129.125 62.2327 132.27 60.0761 134.651 58.4586C131.821 58.3688 128.047 58.234 125.171 58.189C124.408 56.6165 123.374 54.5498 122.7 52.9323C120.903 54.7744 118.522 57.2904 116.814 59.1775C114.074 59.8963 110.479 60.8848 107.784 61.6486C109.132 62.9066 111.064 64.4791 112.546 65.6473Z" fill="#580009"/>
<path d="M113.806 140.41C115.873 138.748 118.658 136.591 120.815 135.063C123.556 136.052 127.15 137.4 129.846 138.478C128.992 135.782 127.824 132.233 126.97 129.537C128.947 127.381 131.643 124.505 133.665 122.438C130.52 122.214 126.386 121.989 123.241 121.809C121.579 119.383 119.377 116.103 117.715 113.677C116.637 116.418 115.199 120.102 114.21 122.888C111.47 123.741 107.875 124.909 105.18 125.853C107.516 127.47 110.661 129.582 113.042 131.199C113.267 133.985 113.537 137.669 113.806 140.41Z" fill="#580009"/>
<path d="M85.3197 73.4646C84.1515 76.0255 82.6689 79.3952 81.6355 82.0011C83.3877 80.1141 85.8139 77.5981 87.656 75.8458C89.0938 76.385 90.9808 77.0589 92.4185 77.5981C92.733 75.3067 93.1823 72.2964 93.6316 70.05C95.7433 68.0281 98.5738 65.3324 100.73 63.4004C98.8883 63.67 96.4172 64.0744 94.5751 64.4338C94.8447 62.8613 95.2041 60.7945 95.6534 59.2669C93.8113 61.3786 91.3851 64.2541 89.6329 66.4556C88.1053 67.4441 86.1284 68.8369 84.6907 69.9601C84.8255 70.9935 85.4096 72.3863 85.3197 73.4646Z" fill="#580009"/>
<path d="M162.508 121.225C161.295 118.529 159.633 114.935 158.375 112.284C156.892 114.845 154.87 118.215 153.387 120.776C150.287 121.135 146.109 121.674 143.009 122.079C145.21 124.055 148.176 126.706 150.332 128.728C149.793 131.469 149.029 135.108 148.49 137.804C151.051 136.591 154.511 134.973 157.072 133.76C159.408 135.153 162.508 137.085 164.755 138.568C164.665 135.827 164.53 132.143 164.395 129.357C166.687 127.56 169.787 125.179 172.123 123.426C169.292 122.752 165.428 121.854 162.508 121.225Z" fill="#580009"/>
<path d="M125.667 45.9679C127.509 46.4172 129.98 47.0911 131.867 47.5853C131.957 46.2374 132.092 44.4403 132.272 43.0924C134.159 42.1938 136.63 40.9807 138.517 40.0821C136.63 40.0821 134.114 40.0821 132.227 40.0821C132.137 39.4082 132.002 38.4647 132.047 37.7458C130.385 38.5995 128.183 39.8126 126.566 40.7561C124.634 41.2054 122.028 41.7895 120.096 42.2837C120.635 42.9127 121.354 43.7663 121.938 44.3055C120.59 45.7882 118.793 47.7201 117.535 49.2477C119.961 48.2593 123.196 46.9114 125.667 45.9679Z" fill="#580009"/>
<path d="M128.991 153.843C127.329 151.686 125.128 148.811 123.42 146.699C122.971 149.08 122.432 152.27 122.162 154.652C120.185 155.326 117.579 156.269 115.647 156.988C117.804 158.336 121.309 159.459 122.881 161.526C123.6 163.727 124.633 166.648 125.487 168.804C126.565 167.546 128.048 165.929 129.171 164.761C131.193 165.57 133.844 166.693 135.821 167.591C134.877 165.435 133.664 162.559 132.721 160.358C133.934 158.561 135.641 156.179 136.944 154.427C134.608 154.247 131.373 154.023 128.991 153.843Z" fill="#580009"/>
<path d="M121.848 87.1238C120.545 84.8324 118.793 81.7772 117.49 79.4858C115.872 82.0917 113.76 85.5962 112.233 88.247C109.223 89.1007 105.224 90.3587 102.259 91.3022C104.325 92.9646 107.156 95.1661 109.268 96.7836C108.818 99.7489 108.279 103.748 107.92 106.713C110.615 104.916 114.255 102.535 116.995 100.827C119.961 101.906 123.914 103.343 126.835 104.422C126.206 101.591 125.352 97.772 124.768 94.8965C127.149 92.695 130.384 89.7297 132.81 87.5731C129.531 87.4832 125.172 87.2586 121.848 87.1238Z" fill="#580009"/>
<path d="M127.059 192.882C123.105 198.992 115.602 203.305 108.458 203.979C96.2376 205.102 82.1298 211.932 82.1298 211.932C82.1298 211.932 85.9039 184.66 100.012 185.783C88.7344 184.66 81.1863 190.321 74.6266 191.444C68.067 192.567 57.6883 191.444 54.8578 197.105C53.9143 185.738 55.8013 173.248 76.5137 169.833C62.4059 168.71 53.0157 163.004 48.2981 158.466C43.5805 153.928 35.1338 153.928 35.1338 153.928C35.1338 153.928 49.2416 139.146 61.4624 142.561C45.4226 138.068 39.7616 121.04 30.3713 121.04C40.7051 114.211 47.3097 108.55 57.6434 118.748C44.4791 105.135 42.5921 80.1093 50.1402 65.3276C61.4174 73.2801 63.3045 84.6472 63.3045 84.6472C63.3045 84.6472 76.4687 23.3187 105.628 24.442C101.854 38.0555 99.9667 46.008 99.9667 46.008C99.9218 46.2327 98.7087 46.7269 98.529 46.8167C74.6716 61.0144 61.5522 87.5676 62.7204 115.019C62.8103 116.951 62.945 118.883 63.1697 120.815C63.7088 125.578 64.6074 130.295 65.8205 134.968C67.6626 141.887 70.3584 148.626 73.9527 154.872C82.669 170.013 95.4738 183.716 112.322 189.602C116.276 190.995 120.41 192.118 124.543 192.837C125.397 192.972 126.25 192.927 127.059 192.882Z" fill="#580009"/>
</g>
</g>
</svg>
