<svg width="1280" height="720" viewBox="0 0 1280 720" fill="none" xmlns="http://www.w3.org/2000/svg">
<g clip-path="url(#clip0_377_3044)">
<rect width="1280" height="720" fill="url(#paint0_linear_377_3044)"/>
<g opacity="0.2">
<path d="M1103.46 784.137C1100.31 780.524 1096.32 775.457 1093.79 771.387C1090.09 771.47 1085.19 771.595 1081.49 771.761C1073.94 767.442 1063.84 761.669 1056.37 757.226C1061.64 762.625 1068.79 769.726 1074.52 774.627C1073.73 776.246 1072.81 778.447 1072.32 780.15C1079.17 782.351 1088.47 784.967 1095.24 787.5C1103.34 791.03 1114.18 795.64 1122.48 798.589C1119.41 796.886 1115.38 794.436 1112.56 792.359C1117.17 793.522 1123.36 795.1 1127.92 796.346C1120.53 792.775 1110.69 787.999 1103.46 784.137Z" fill="url(#paint1_radial_377_3044)"/>
<path d="M988.759 737.084C984.98 730.979 980.121 722.674 976.882 716.237C974.266 717.358 970.819 718.977 968.327 720.389C962.222 715.115 954.165 708.055 948.31 702.49C953.626 710.09 960.852 720.14 966.624 727.366C967.912 730.73 969.905 735.132 971.691 738.288C976.01 741.071 982.073 744.31 986.35 747.176C993.826 753.073 1003.83 760.839 1011.64 766.279C1007.86 762.251 1003 756.727 999.598 752.408C1003.96 753.405 1009.77 754.734 1014.17 755.689C1006.45 750.249 996.193 742.94 988.759 737.084Z" fill="url(#paint2_radial_377_3044)"/>
<path d="M915.918 420.425C915.419 421.588 914.921 422.876 914.423 424.163C915.295 422.211 916.167 420.301 916.997 418.432C916.665 419.096 916.291 419.802 915.918 420.425Z" fill="url(#paint3_radial_377_3044)"/>
<path d="M1087.64 793.689C1081.79 790.782 1074.1 786.671 1068.5 783.265C1066.42 783.764 1063.64 784.511 1061.6 785.134C1053.55 782.144 1042.83 778.032 1034.86 774.71C1042.5 779.112 1052.84 784.802 1060.77 788.622C1062.27 790.325 1064.34 792.485 1065.96 793.98C1072.15 795.184 1080.46 796.554 1086.64 797.8C1096.11 799.96 1108.74 802.659 1118.29 804.154C1113.72 803.033 1107.7 801.372 1103.21 799.918C1107.91 800.334 1114.22 800.957 1118.91 801.413C1109.53 799.295 1096.99 796.347 1087.64 793.689Z" fill="url(#paint4_radial_377_3044)"/>
<path d="M1027.43 729.734C1033.9 731.561 1042.5 734.012 1048.98 735.88C1042.5 729.277 1033.9 720.432 1027.63 713.579C1027.67 707.059 1028.05 698.297 1028.8 691.818C1022.57 692.316 1014.22 693.064 1007.99 693.728C1001.14 687.374 992.001 678.902 985.273 672.424C987.682 680.605 991.087 691.486 994.119 699.459C991.17 702.449 987.391 706.602 984.775 709.883C991.585 713.538 1001.43 717.068 1007.53 721.885C1013.47 728.862 1021.49 738.081 1027.84 744.602C1027.38 740.116 1027.18 734.178 1027.43 729.734Z" fill="url(#paint5_radial_377_3044)"/>
<path d="M920.238 646.177C918.992 637.83 917.58 626.658 917.04 618.228C914.299 619.723 910.727 621.924 908.236 623.835C904.955 616.982 900.76 607.763 898.02 600.661C900.179 610.421 903.252 623.419 906.035 633.012C906.741 636.625 907.737 641.401 908.942 644.848L909.149 645.347L911.101 650.164C912.721 653.279 915.046 657.348 916.874 660.38C921.4 669.06 927.547 680.522 932.613 688.911C930.08 682.723 926.965 674.334 925.055 667.938C928.46 669.392 933.029 671.219 936.517 672.465C931.45 664.699 924.806 654.275 920.238 646.177Z" fill="url(#paint6_radial_377_3044)"/>
<path d="M927.132 398.541L921.982 407.885C920.446 411.124 918.743 414.696 917.04 418.433C921.235 410.75 926.633 401.365 931.077 394.305C929.79 395.509 928.087 397.129 927.132 398.541Z" fill="url(#paint7_radial_377_3044)"/>
<path d="M914.424 424.163C911.351 431.057 908.361 438.117 905.952 444.138C905.869 445.176 905.744 446.63 906.077 447.668C908.444 440.608 911.517 431.638 914.424 424.163Z" fill="url(#paint8_radial_377_3044)"/>
<path d="M899.931 501.74C897.606 503.318 894.574 505.602 892.581 507.637C893.037 500.328 893.868 490.568 894.989 483.342L892.705 495.967C891.169 509.132 889.757 526.823 889.258 540.071C889.715 551.865 890.629 567.563 891.833 579.274C891.335 572.962 890.795 564.49 890.836 558.178C892.539 560.088 895.031 562.372 897.066 563.909C895.695 554.648 893.993 542.231 893.245 532.887C894.989 523.501 897.523 511.001 899.931 501.74Z" fill="url(#paint9_radial_377_3044)"/>
<path d="M966.168 634.425C973.436 636.626 983.154 639.575 990.463 641.776C985.77 633.179 979.541 621.717 975.097 612.955C978.253 604.649 982.655 593.644 986.393 585.545C978.668 586.334 968.369 587.497 960.686 588.494C955.578 580.977 948.809 570.927 943.992 563.203C943.286 573.045 942.455 586.168 942.33 596.052C937.762 599.956 931.824 605.355 927.588 609.632C933.236 614.2 942.414 618.644 946.691 624.624C949.806 633.885 954.042 646.178 957.655 655.231C959.897 648.877 963.261 640.53 966.168 634.425Z" fill="url(#paint10_radial_377_3044)"/>
<path d="M1401.97 583.967C1397.95 591.193 1392.42 600.745 1388.02 607.722C1382.62 605.978 1375.4 603.818 1369.91 602.365C1371.45 610.837 1375.94 622.34 1374.11 630.771C1369.25 639.076 1362.69 650.04 1357.45 658.097C1363.02 656.602 1370.41 654.608 1375.98 653.03C1376.27 659.467 1376.27 668.064 1375.77 674.459C1380.21 665.697 1386.03 653.944 1389.97 644.932C1393.96 641.07 1399.15 635.796 1402.8 631.601C1401.81 627.074 1400.02 621.136 1398.28 616.9C1399.61 607.057 1401.27 593.893 1401.97 583.967Z" fill="url(#paint11_radial_377_3044)"/>
<path d="M1331.33 708.221C1326.72 706.976 1320.58 705.439 1315.93 704.401C1314.51 711.004 1313.97 720.639 1310.28 726.204C1302.97 732.391 1293.21 740.573 1285.69 746.428C1291.34 745.182 1298.86 743.563 1304.51 742.317C1302.64 746.844 1299.9 752.741 1297.53 756.977C1304.84 750.913 1314.56 742.774 1321.53 736.254C1327.26 733.347 1334.91 729.401 1340.55 726.287C1340.43 722.923 1339.85 718.438 1339.1 715.157C1343.67 707.474 1349.65 697.092 1353.68 689.077C1346.99 694.891 1338.14 702.615 1331.33 708.221Z" fill="url(#paint12_radial_377_3044)"/>
<path d="M1413.94 500.245C1411.57 490.028 1408.25 476.448 1405.26 466.44C1404.84 473.666 1404.13 483.342 1403.1 490.485C1397.95 488.575 1390.97 486.249 1385.7 484.713C1390.1 493.891 1398.36 505.56 1399.53 515.735C1398.07 525.121 1396.08 537.662 1394.08 546.923C1398.57 545.262 1404.55 542.937 1408.99 541.026C1411.36 548.501 1414.14 558.551 1415.68 566.234C1416.34 555.811 1417.13 541.94 1417.17 531.516C1418.59 526.948 1420.21 520.76 1420.91 516.026C1419.13 511.167 1416.34 504.771 1413.94 500.245Z" fill="url(#paint13_radial_377_3044)"/>
<path d="M1135.73 778.157C1136.44 774.087 1137.64 768.73 1138.93 764.867C1134.65 764.286 1128.88 763.538 1124.6 763.04C1119.78 757.641 1113.35 750.457 1108.45 745.141C1109.48 750.997 1111.06 758.804 1112.76 764.452C1109.82 765.781 1105.91 767.65 1103.05 769.186C1108.74 772.343 1116.75 775.789 1121.86 779.818C1126.1 784.303 1131.83 790.283 1136.48 794.311C1135.77 792.235 1135.19 789.286 1135.11 787.085C1138.35 788.83 1142.58 791.238 1145.7 793.19C1142.67 788.747 1138.64 782.725 1135.73 778.157Z" fill="url(#paint14_radial_377_3044)"/>
<path d="M1285.94 688.745C1287.06 680.522 1288.39 669.558 1288.98 661.252C1282.46 668.146 1273.78 677.366 1267.21 684.218C1259.86 684.093 1250.1 684.01 1242.79 684.052C1245.2 690.406 1248.24 698.919 1250.1 705.481C1245.04 712.624 1238.31 722.176 1233.08 729.194C1239.89 726.785 1249.02 723.671 1255.88 721.428C1257.83 725.747 1260.2 731.603 1261.61 736.129C1266.47 729.028 1272.82 719.476 1277.22 712.084C1284.66 708.014 1294.54 702.574 1301.97 698.504C1297.24 695.389 1290.84 691.486 1285.94 688.745Z" fill="url(#paint15_radial_377_3044)"/>
<path d="M1378.89 404.727C1381.29 412.617 1384.37 423.207 1386.19 431.222C1388.73 430.018 1392.01 428.274 1394.33 426.737C1398.4 433.506 1403.59 442.767 1407.04 449.91C1403.64 440.608 1398.99 428.232 1395 419.179L1392.34 412.451L1390.43 408.755L1386.11 400.823C1384.62 398.58 1382.75 395.507 1381.09 393.389C1375.6 385.25 1368.17 374.452 1362.27 366.645C1365.31 372.002 1369.17 379.228 1371.62 384.876C1367.63 383.049 1362.23 380.848 1358.08 379.352C1364.52 386.828 1374.36 395.881 1378.89 404.727Z" fill="url(#paint16_radial_377_3044)"/>
<path d="M1233.53 777.492C1229.17 781.23 1223.48 786.67 1218.37 789.245C1209.61 792.318 1197.94 796.388 1189.06 799.004C1193.91 798.215 1200.43 797.219 1205.33 796.513C1201.43 798.257 1196.16 800.375 1192.13 801.745C1201.43 799.461 1213.85 796.263 1222.98 793.315C1229.75 791.778 1238.77 789.743 1245.53 788.124C1246.28 786.504 1247.07 784.22 1247.49 782.476C1254.59 778.032 1264.02 771.927 1270.74 766.902C1262.64 770.64 1251.81 775.54 1243.62 778.987C1240.55 778.489 1236.56 777.908 1233.53 777.492Z" fill="url(#paint17_radial_377_3044)"/>
<path d="M1182.82 796.346C1189.55 792.691 1198.52 787.708 1204.92 783.472C1211.44 780.772 1220.16 777.201 1226.68 774.585C1224.98 772.882 1222.61 770.764 1220.78 769.269C1224.69 763.87 1229.75 756.561 1233.03 750.747C1226.55 755.647 1217.92 762.167 1211.4 766.985C1207.33 767.109 1201.93 767.359 1197.86 767.566C1196.94 771.636 1196.36 777.533 1193.83 780.814C1188.35 785.05 1181.04 790.615 1175.39 794.56C1179.42 792.982 1184.86 790.947 1188.97 789.494C1187.35 791.736 1184.9 794.519 1182.82 796.346Z" fill="url(#paint18_radial_377_3044)"/>
<path d="M1175.97 762.293C1175.6 756.479 1174.94 748.713 1174.06 742.94C1170.95 748.547 1166.88 756.022 1164.01 761.753C1159.99 762.542 1154.63 763.622 1150.64 764.494C1153.3 768.273 1158.2 772.841 1158.95 777.409C1158.16 782.061 1157.08 788.207 1156.41 792.858C1158.41 790.74 1161.27 788.041 1163.47 786.13C1164.39 788.207 1165.38 791.072 1165.8 793.273C1168.12 788.788 1171.11 782.725 1172.98 778.032C1177.22 774.378 1182.95 769.602 1187.35 766.155C1183.99 764.951 1179.42 763.414 1175.97 762.293Z" fill="url(#paint19_radial_377_3044)"/>
<path d="M1179.54 711.295C1184.44 715.032 1190.92 720.182 1195.62 724.21C1196.65 716.569 1197.94 706.353 1198.65 698.67C1205.33 693.354 1214.3 686.336 1221.12 681.186C1213.72 679.193 1203.88 676.66 1196.45 674.874C1193.91 666.734 1190.43 655.895 1187.52 647.88C1182.99 655.604 1176.97 665.945 1172.61 673.752C1164.51 674.832 1153.71 676.41 1145.62 677.656C1151.26 683.346 1158.7 691.07 1164.14 697.05C1162.64 704.692 1160.69 714.866 1159.28 722.508C1165.34 719.061 1173.44 714.534 1179.54 711.295Z" fill="url(#paint20_radial_377_3044)"/>
<path d="M948.392 470.052C946.191 462.702 943.326 452.901 941.581 445.426C937.595 455.144 932.362 468.142 928.873 478.109C923.433 482.22 916.332 487.951 911.265 492.52C914.587 497.545 920.983 503.11 922.81 508.882C922.395 519.306 921.938 533.177 922.104 543.6C926.672 536.291 933.068 526.698 938.134 519.721C944.904 522.171 953.999 525.369 960.809 527.695C958.733 518.185 956.075 505.477 954.455 495.884C960.186 486.996 968.077 475.244 974.265 466.689C966.499 467.602 956.117 468.931 948.392 470.052Z" fill="url(#paint21_radial_377_3044)"/>
<path d="M1162.73 503.234C1172.9 498.707 1186.48 492.727 1196.7 488.366C1206.5 493.641 1219.54 500.825 1229.25 506.348C1227.68 496.132 1225.56 482.552 1223.81 472.378C1231.62 466.065 1242.05 457.718 1249.85 451.447C1238.97 448.955 1224.4 445.799 1213.47 443.556C1208.37 434.794 1201.51 423.166 1196.24 414.528C1191.34 422.75 1184.82 433.756 1179.96 441.978C1168.5 443.183 1153.17 444.927 1141.75 446.38C1150.14 453.316 1161.23 462.66 1169.45 469.803C1167.42 479.853 1164.72 493.225 1162.73 503.234Z" fill="url(#paint22_radial_377_3044)"/>
<path d="M1255.5 300.283C1258.08 304.975 1261.48 311.288 1263.6 316.23C1267.88 315.025 1273.61 313.406 1277.93 312.16C1285.53 316.147 1295.62 321.587 1303.1 325.823C1297.49 320.092 1289.93 312.534 1283.99 307.176C1283.99 305.1 1283.7 302.276 1283 300.324C1277.56 298.123 1270.2 295.299 1264.68 293.347C1257.91 289.568 1248.82 284.585 1241.88 281.179C1244.25 283.505 1247.28 286.786 1249.11 289.568C1243.92 288.987 1236.98 288.322 1231.79 287.865C1238.93 291.52 1249.77 294.552 1255.5 300.283Z" fill="url(#paint23_radial_377_3044)"/>
<path d="M1162.73 389.03C1172.24 385.417 1184.95 380.641 1194.54 377.153C1204.3 381.513 1217.3 387.452 1226.97 392.02C1224.4 383.922 1220.95 373.124 1218.21 365.068C1224.36 360.624 1232.58 354.644 1238.73 350.117C1229.01 348.165 1216.05 345.715 1206.29 343.971C1201.27 337.866 1194.54 329.768 1189.43 323.746C1185.73 329.436 1180.79 336.994 1177.05 342.6C1167 343.431 1153.63 344.677 1143.62 345.674C1151.1 350.74 1161.07 357.551 1168.46 362.742C1166.76 370.633 1164.43 381.139 1162.73 389.03Z" fill="url(#paint24_radial_377_3044)"/>
<path d="M1336.48 340.109C1336.73 339.694 1337.11 339.112 1337.36 338.655C1337.23 338.323 1337.07 337.866 1336.9 337.493L1340.35 340.815L1336.86 337.409C1318.83 321.338 1316.92 319.635 1301.02 308.547C1299.23 307.592 1296.87 306.304 1295.04 305.474C1302.22 310.291 1312.02 316.437 1318.67 322.044C1324.19 327.318 1331.42 334.419 1336.48 340.109Z" fill="url(#paint25_radial_377_3044)"/>
<path d="M1339.27 463.117C1334.78 453.523 1328.72 440.816 1323.86 431.43C1320.7 439.071 1316.39 449.204 1312.94 456.721C1303.3 456.264 1290.47 455.808 1280.88 455.558C1288.19 463.698 1297.78 474.662 1304.76 483.051C1302.76 492.768 1300.06 505.726 1297.78 515.36C1306.34 512.37 1317.76 508.425 1326.35 505.476C1333.58 512.08 1343.05 521.05 1349.98 528.027C1349.4 517.644 1348.53 503.774 1347.49 493.391C1353.01 488.283 1360.32 481.431 1365.72 476.157C1357.79 472.087 1347.24 466.813 1339.27 463.117Z" fill="url(#paint26_radial_377_3044)"/>
<path d="M1304.01 622.091C1308.99 627.947 1315.47 635.92 1320.04 642.108C1322.4 632.764 1325.48 620.264 1327.43 610.795C1334.61 605.936 1344.12 599.416 1351.27 594.433C1344.37 590.529 1335.11 585.546 1328.05 582.016C1326.31 572.215 1323.82 559.133 1321.61 549.457C1316.17 557.472 1308.91 568.145 1303.3 576.035C1294 575.703 1281.54 575.371 1272.24 575.246C1277.47 583.012 1284.32 593.478 1289.18 601.534C1285.28 610.546 1280 622.506 1275.89 631.435C1284.28 628.528 1295.53 624.791 1304.01 622.091Z" fill="url(#paint27_radial_377_3044)"/>
<path d="M1316.01 360.997C1309.82 353.896 1301.47 344.51 1294.99 337.7C1294.62 343.015 1293.91 350.158 1293.04 355.433C1284.94 354.81 1274.11 354.145 1265.97 353.73C1273.9 359.959 1284.45 368.39 1292.21 374.827C1292.63 382.593 1293.08 392.975 1293.13 400.741C1300.14 398.498 1309.49 395.508 1316.51 393.266C1324.73 399.038 1335.57 406.887 1343.54 412.992C1340.01 404.312 1335.19 392.809 1331.25 384.337C1334.16 380.724 1337.94 375.782 1340.51 371.878C1333.2 368.431 1323.4 364.071 1316.01 360.997Z" fill="url(#paint28_radial_377_3044)"/>
<path d="M1161.44 307.05C1168.62 304.89 1178.18 302.025 1185.4 299.948C1193.33 302.731 1203.88 306.468 1211.77 309.417C1208.78 304.517 1204.75 297.955 1201.56 293.179C1205 290.895 1209.65 287.822 1213.02 285.455C1206.21 284.292 1197.11 282.838 1190.3 281.842C1186.32 279.018 1180.96 275.28 1176.85 272.622C1174.98 275.156 1172.44 278.478 1170.49 280.928C1163.64 281.302 1154.55 281.883 1147.69 282.423C1152.97 285.123 1160.03 288.736 1165.3 291.518C1164.14 296.169 1162.64 302.399 1161.44 307.05Z" fill="url(#paint29_radial_377_3044)"/>
<path d="M1008.61 325.532C1012.43 320.382 1017.66 313.571 1021.94 308.796C1029.25 304.394 1039.05 298.663 1046.53 294.593C1042.62 295.382 1037.43 296.503 1033.57 297.458C1037.47 294.51 1042.83 290.73 1047.03 288.28C1039.43 292.267 1029.38 297.749 1022.02 302.192C1017.87 304.477 1012.43 307.674 1008.44 310.208C1006.04 312.243 1003 315.233 1000.8 317.475C994.242 323.372 985.521 331.263 979.292 337.575C985.645 332.841 994.2 326.695 1000.76 322.293C1003.13 323.372 1006.24 324.66 1008.61 325.532Z" fill="url(#paint30_radial_377_3044)"/>
<path d="M1037.02 371.38C1033.53 379.644 1029 390.691 1025.85 399.08C1035.65 393.764 1048.81 386.787 1058.74 381.762C1067.87 384.586 1080.04 388.49 1089.14 391.48C1088.18 383.714 1086.94 373.332 1086.15 365.524C1094.24 359.835 1105.08 352.277 1113.31 346.753C1103.51 346.38 1090.38 346.006 1080.58 345.881C1077.92 340.482 1074.44 333.256 1072.03 327.774C1065.84 334.17 1057.66 342.766 1051.64 349.37C1042.25 351.82 1029.75 355.225 1020.41 357.966C1025.31 362.036 1031.95 367.435 1037.02 371.38Z" fill="url(#paint31_radial_377_3044)"/>
<path d="M1041.5 629.898C1048.64 624.209 1058.32 616.775 1065.71 611.418C1075.14 614.864 1087.64 619.557 1096.98 623.212C1093.99 613.951 1090.05 601.575 1087.1 592.314C1093.95 584.839 1103.21 574.997 1110.27 567.771C1099.48 567.023 1085.07 566.151 1074.27 565.652C1068.54 557.222 1060.9 545.968 1055.21 537.496C1051.43 547.006 1046.48 559.755 1043.04 569.39C1033.61 572.297 1021.07 576.367 1011.73 579.648C1019.86 585.213 1030.75 592.605 1038.93 598.128C1039.59 607.638 1040.5 620.388 1041.5 629.898Z" fill="url(#paint32_radial_377_3044)"/>
<path d="M942.913 398.457C938.926 407.219 933.694 419.014 930.205 427.984C936.31 421.422 944.616 412.826 951.053 406.638C955.995 408.507 962.598 410.874 967.581 412.618C968.703 404.769 970.239 394.304 971.859 386.538C979.085 379.478 988.886 370.217 996.403 363.489C990.007 364.444 981.494 365.856 975.14 367.061C976.012 361.662 977.341 354.477 978.877 349.245C972.523 356.554 964.135 366.396 958.113 374.038C952.88 377.526 945.986 382.343 940.961 386.206C941.294 389.902 943.204 394.719 942.913 398.457Z" fill="url(#paint33_radial_377_3044)"/>
<path d="M1209.78 563.659C1205.58 554.357 1199.89 541.981 1195.49 532.762C1190.3 541.566 1183.41 553.36 1178.26 562.206C1167.5 563.452 1153.17 565.237 1142.42 566.733C1150.1 573.543 1160.27 582.68 1167.79 589.698C1165.88 599.125 1163.31 611.709 1161.48 621.136C1170.37 616.858 1182.24 611.293 1191.21 607.223C1199.27 612.082 1209.94 618.644 1217.83 623.752C1217.54 614.2 1217.09 601.492 1216.59 591.941C1224.56 585.753 1235.24 577.53 1243.29 571.425C1233.28 568.934 1219.87 565.819 1209.78 563.659Z" fill="url(#paint34_radial_377_3044)"/>
<path d="M1082.45 303.437C1088.89 305.057 1097.4 307.258 1103.8 308.961C1104.13 304.309 1104.58 298.08 1105.25 293.47C1111.69 290.314 1120.32 286.12 1126.84 283.088C1120.32 283.005 1111.6 283.005 1105.04 283.088C1104.67 280.721 1104.25 277.482 1104.42 275.073C1098.65 278.063 1091 282.174 1085.4 285.455C1078.67 286.95 1069.7 289.068 1062.97 290.771C1064.76 293.013 1067.33 295.837 1069.41 297.789C1064.76 302.856 1058.57 309.625 1054.17 314.941C1062.68 311.369 1073.94 306.76 1082.45 303.437Z" fill="url(#paint35_radial_377_3044)"/>
<path d="M1093.95 676.369C1088.22 668.936 1080.54 659.052 1074.73 651.659C1073.23 659.882 1071.32 670.887 1070.32 679.193C1063.51 681.519 1054.5 684.717 1047.77 687.333C1055.29 692.026 1067.33 695.929 1072.86 703.031C1075.43 710.631 1078.88 720.764 1081.87 728.198C1085.56 723.837 1090.67 718.189 1094.7 714.161C1101.64 716.985 1110.81 720.847 1117.67 723.879C1114.43 716.403 1110.15 706.436 1106.95 698.92C1111.19 692.649 1117 684.426 1121.57 678.446C1113.31 677.74 1102.26 676.909 1093.95 676.369Z" fill="url(#paint36_radial_377_3044)"/>
<path d="M1069.29 445.717C1064.72 437.826 1058.66 427.32 1054.21 419.387C1048.69 428.441 1041.38 440.526 1036.11 449.745C1025.72 452.777 1011.89 456.971 1001.59 460.335C1008.82 466.066 1018.46 473.666 1025.76 479.314C1024.27 489.613 1022.32 503.318 1021.11 513.659C1030.46 507.388 1043 499.206 1052.55 493.268C1062.81 496.964 1076.43 501.947 1086.65 505.768C1084.44 495.926 1081.54 482.761 1079.46 472.835C1087.73 465.153 1098.81 455.019 1107.29 447.586C1095.82 446.88 1080.67 446.132 1069.29 445.717Z" fill="url(#paint37_radial_377_3044)"/>
<path d="M1218.67 811.297C1232.25 832.435 1258.28 847.344 1282.99 849.67C1325.27 853.615 1374.07 877.162 1374.07 877.162C1374.07 877.162 1361.07 782.891 1312.27 786.837C1351.31 782.891 1377.31 802.535 1400.06 806.48C1422.82 810.425 1458.62 806.48 1468.34 826.123C1471.58 786.837 1465.1 743.646 1393.54 731.852C1442.34 727.907 1474.86 708.305 1491.1 692.565C1507.38 676.867 1536.61 676.867 1536.61 676.867C1536.61 676.867 1487.82 625.787 1445.54 637.581C1500.81 621.883 1520.33 562.953 1552.85 562.953C1517.09 539.406 1494.29 519.763 1458.54 555.104C1504.05 507.969 1510.57 421.547 1484.53 370.507C1445.5 398 1439.02 437.286 1439.02 437.286C1439.02 437.286 1393.59 225.156 1292.75 229.059C1305.75 276.195 1312.27 303.687 1312.27 303.687C1312.44 304.393 1316.55 306.137 1317.17 306.511C1399.69 355.474 1445.12 447.212 1441.05 542.147C1440.76 548.833 1440.26 555.519 1439.52 562.164C1437.69 578.651 1434.58 595.014 1430.3 611.044C1423.86 635.006 1414.68 658.345 1402.27 679.858C1372.12 732.143 1327.85 779.61 1269.7 799.96C1256 804.736 1241.67 808.639 1227.39 811.09C1224.4 811.588 1221.53 811.546 1218.67 811.297Z" fill="url(#paint38_linear_377_3044)"/>
<path d="M1087.27 811.291C1073.69 832.429 1047.65 847.338 1022.94 849.664C980.662 853.609 931.866 877.156 931.866 877.156C931.866 877.156 944.864 782.885 993.661 786.831C954.624 782.885 928.627 802.528 905.869 806.474C883.111 810.419 847.313 806.474 837.595 826.117C834.355 786.83 840.834 743.64 912.389 731.846C863.592 727.901 831.075 708.299 814.837 692.559C798.557 676.861 769.321 676.861 769.321 676.861C769.321 676.861 818.118 625.781 860.394 637.575C805.036 621.835 785.517 562.947 753 562.947C788.757 539.4 811.556 519.757 847.313 555.098C801.797 507.963 795.277 421.541 821.315 370.501C860.353 397.994 866.831 437.28 866.831 437.28C866.831 437.28 912.347 225.149 1013.18 229.053C1000.18 276.189 993.661 303.681 993.661 303.681C993.495 304.387 989.384 306.131 988.761 306.505C906.242 355.468 860.81 447.206 864.879 542.141C865.17 548.827 865.668 555.513 866.416 562.158C868.243 578.645 871.358 595.008 875.635 611.038C882.072 635 891.25 658.339 903.668 679.852C933.818 732.137 978.088 779.604 1036.23 799.954C1049.93 804.73 1064.26 808.633 1078.55 811.083C1081.54 811.582 1084.4 811.54 1087.27 811.291Z" fill="url(#paint39_linear_377_3044)"/>
</g>
</g>
<defs>
<linearGradient id="paint0_linear_377_3044" x1="640" y1="0" x2="640" y2="720" gradientUnits="userSpaceOnUse">
<stop stop-color="#181818"/>
<stop offset="1" stop-color="#003E27"/>
</linearGradient>
<radialGradient id="paint1_radial_377_3044" cx="0" cy="0" r="1" gradientUnits="userSpaceOnUse" gradientTransform="translate(-1054.17 -7484.91) scale(5768.34 8384.69)">
<stop stop-color="#009245"/>
<stop offset="0.0961" stop-color="#0E8F43"/>
<stop offset="0.2774" stop-color="#33863E"/>
<stop offset="0.5248" stop-color="#6E7836"/>
<stop offset="0.8253" stop-color="#BF662B"/>
<stop offset="1" stop-color="#F15A24"/>
</radialGradient>
<radialGradient id="paint2_radial_377_3044" cx="0" cy="0" r="1" gradientUnits="userSpaceOnUse" gradientTransform="translate(101.966 -4216.82) scale(6266.62 5436.95)">
<stop stop-color="#009245"/>
<stop offset="0.0961" stop-color="#0E8F43"/>
<stop offset="0.2774" stop-color="#33863E"/>
<stop offset="0.5248" stop-color="#6E7836"/>
<stop offset="0.8253" stop-color="#BF662B"/>
<stop offset="1" stop-color="#F15A24"/>
</radialGradient>
<radialGradient id="paint3_radial_377_3044" cx="0" cy="0" r="1" gradientUnits="userSpaceOnUse" gradientTransform="translate(-5373.81 -17128.6) scale(160304 60515.6)">
<stop stop-color="#009245"/>
<stop offset="0.0961" stop-color="#0E8F43"/>
<stop offset="0.2774" stop-color="#33863E"/>
<stop offset="0.5248" stop-color="#6E7836"/>
<stop offset="0.8253" stop-color="#BF662B"/>
<stop offset="1" stop-color="#F15A24"/>
</radialGradient>
<radialGradient id="paint4_radial_377_3044" cx="0" cy="0" r="1" gradientUnits="userSpaceOnUse" gradientTransform="translate(-580.709 -10992.3) scale(4910.5 11778.8)">
<stop stop-color="#009245"/>
<stop offset="0.0961" stop-color="#0E8F43"/>
<stop offset="0.2774" stop-color="#33863E"/>
<stop offset="0.5248" stop-color="#6E7836"/>
<stop offset="0.8253" stop-color="#BF662B"/>
<stop offset="1" stop-color="#F15A24"/>
</radialGradient>
<radialGradient id="paint5_radial_377_3044" cx="0" cy="0" r="1" gradientUnits="userSpaceOnUse" gradientTransform="translate(-369.127 -3430.1) scale(6428.76 4805.04)">
<stop stop-color="#009245"/>
<stop offset="0.0961" stop-color="#0E8F43"/>
<stop offset="0.2774" stop-color="#33863E"/>
<stop offset="0.5248" stop-color="#6E7836"/>
<stop offset="0.8253" stop-color="#BF662B"/>
<stop offset="1" stop-color="#F15A24"/>
</radialGradient>
<radialGradient id="paint6_radial_377_3044" cx="0" cy="0" r="1" gradientUnits="userSpaceOnUse" gradientTransform="translate(684.045 -2236.64) scale(10721.5 3929.95)">
<stop stop-color="#009245"/>
<stop offset="0.0961" stop-color="#0E8F43"/>
<stop offset="0.2774" stop-color="#33863E"/>
<stop offset="0.5248" stop-color="#6E7836"/>
<stop offset="0.8253" stop-color="#BF662B"/>
<stop offset="1" stop-color="#F15A24"/>
</radialGradient>
<radialGradient id="paint7_radial_377_3044" cx="0" cy="0" r="1" gradientUnits="userSpaceOnUse" gradientTransform="translate(-519.939 -3245.64) scale(29404.9 14373.8)">
<stop stop-color="#009245"/>
<stop offset="0.0961" stop-color="#0E8F43"/>
<stop offset="0.2774" stop-color="#33863E"/>
<stop offset="0.5248" stop-color="#6E7836"/>
<stop offset="0.8253" stop-color="#BF662B"/>
<stop offset="1" stop-color="#F15A24"/>
</radialGradient>
<radialGradient id="paint8_radial_377_3044" cx="0" cy="0" r="1" gradientUnits="userSpaceOnUse" gradientTransform="translate(-288.909 -4161.1) scale(48188.4 14754.7)">
<stop stop-color="#009245"/>
<stop offset="0.0961" stop-color="#0E8F43"/>
<stop offset="0.2774" stop-color="#33863E"/>
<stop offset="0.5248" stop-color="#6E7836"/>
<stop offset="0.8253" stop-color="#BF662B"/>
<stop offset="1" stop-color="#F15A24"/>
</radialGradient>
<radialGradient id="paint9_radial_377_3044" cx="0" cy="0" r="1" gradientUnits="userSpaceOnUse" gradientTransform="translate(1160.96 -1246.51) scale(38672.6 3615.22)">
<stop stop-color="#009245"/>
<stop offset="0.0961" stop-color="#0E8F43"/>
<stop offset="0.2774" stop-color="#33863E"/>
<stop offset="0.5248" stop-color="#6E7836"/>
<stop offset="0.8253" stop-color="#BF662B"/>
<stop offset="1" stop-color="#F15A24"/>
</radialGradient>
<radialGradient id="paint10_radial_377_3044" cx="0" cy="0" r="1" gradientUnits="userSpaceOnUse" gradientTransform="translate(334.628 -1871.56) scale(6564.63 3768.57)">
<stop stop-color="#009245"/>
<stop offset="0.0961" stop-color="#0E8F43"/>
<stop offset="0.2774" stop-color="#33863E"/>
<stop offset="0.5248" stop-color="#6E7836"/>
<stop offset="0.8253" stop-color="#BF662B"/>
<stop offset="1" stop-color="#F15A24"/>
</radialGradient>
<radialGradient id="paint11_radial_377_3044" cx="0" cy="0" r="1" gradientUnits="userSpaceOnUse" gradientTransform="translate(-7408.78 -2055.96) scale(9101.52 3832.56)">
<stop stop-color="#009245"/>
<stop offset="0.0961" stop-color="#0E8F43"/>
<stop offset="0.2774" stop-color="#33863E"/>
<stop offset="0.5248" stop-color="#6E7836"/>
<stop offset="0.8253" stop-color="#BF662B"/>
<stop offset="1" stop-color="#F15A24"/>
</radialGradient>
<radialGradient id="paint12_radial_377_3044" cx="0" cy="0" r="1" gradientUnits="userSpaceOnUse" gradientTransform="translate(-3847.2 -3819.58) scale(6071.38 5107.74)">
<stop stop-color="#009245"/>
<stop offset="0.0961" stop-color="#0E8F43"/>
<stop offset="0.2774" stop-color="#33863E"/>
<stop offset="0.5248" stop-color="#6E7836"/>
<stop offset="0.8253" stop-color="#BF662B"/>
<stop offset="1" stop-color="#F15A24"/>
</radialGradient>
<radialGradient id="paint13_radial_377_3044" cx="0" cy="0" r="1" gradientUnits="userSpaceOnUse" gradientTransform="translate(-10398.6 -1079.62) scale(11720.3 3475.3)">
<stop stop-color="#009245"/>
<stop offset="0.0961" stop-color="#0E8F43"/>
<stop offset="0.2774" stop-color="#33863E"/>
<stop offset="0.5248" stop-color="#6E7836"/>
<stop offset="0.8253" stop-color="#BF662B"/>
<stop offset="1" stop-color="#F15A24"/>
</radialGradient>
<radialGradient id="paint14_radial_377_3044" cx="0" cy="0" r="1" gradientUnits="userSpaceOnUse" gradientTransform="translate(-3154.28 -6100.76) scale(9677.56 7053.34)">
<stop stop-color="#009245"/>
<stop offset="0.0961" stop-color="#0E8F43"/>
<stop offset="0.2774" stop-color="#33863E"/>
<stop offset="0.5248" stop-color="#6E7836"/>
<stop offset="0.8253" stop-color="#BF662B"/>
<stop offset="1" stop-color="#F15A24"/>
</radialGradient>
<radialGradient id="paint15_radial_377_3044" cx="0" cy="0" r="1" gradientUnits="userSpaceOnUse" gradientTransform="translate(-3175.34 -3201.48) scale(5990.87 4631.81)">
<stop stop-color="#009245"/>
<stop offset="0.0961" stop-color="#0E8F43"/>
<stop offset="0.2774" stop-color="#33863E"/>
<stop offset="0.5248" stop-color="#6E7836"/>
<stop offset="0.8253" stop-color="#BF662B"/>
<stop offset="1" stop-color="#F15A24"/>
</radialGradient>
<radialGradient id="paint16_radial_377_3044" cx="0" cy="0" r="1" gradientUnits="userSpaceOnUse" gradientTransform="translate(-6816.69 -562.566) scale(8429.9 4165.16)">
<stop stop-color="#009245"/>
<stop offset="0.0961" stop-color="#0E8F43"/>
<stop offset="0.2774" stop-color="#33863E"/>
<stop offset="0.5248" stop-color="#6E7836"/>
<stop offset="0.8253" stop-color="#BF662B"/>
<stop offset="1" stop-color="#F15A24"/>
</radialGradient>
<radialGradient id="paint17_radial_377_3044" cx="0" cy="0" r="1" gradientUnits="userSpaceOnUse" gradientTransform="translate(-2129.19 -9108.4) scale(5052.8 9953.7)">
<stop stop-color="#009245"/>
<stop offset="0.0961" stop-color="#0E8F43"/>
<stop offset="0.2774" stop-color="#33863E"/>
<stop offset="0.5248" stop-color="#6E7836"/>
<stop offset="0.8253" stop-color="#BF662B"/>
<stop offset="1" stop-color="#F15A24"/>
</radialGradient>
<radialGradient id="paint18_radial_377_3044" cx="0" cy="0" r="1" gradientUnits="userSpaceOnUse" gradientTransform="translate(-3141.9 -6676.23) scale(7160.56 7605.79)">
<stop stop-color="#009245"/>
<stop offset="0.0961" stop-color="#0E8F43"/>
<stop offset="0.2774" stop-color="#33863E"/>
<stop offset="0.5248" stop-color="#6E7836"/>
<stop offset="0.8253" stop-color="#BF662B"/>
<stop offset="1" stop-color="#F15A24"/>
</radialGradient>
<radialGradient id="paint19_radial_377_3044" cx="0" cy="0" r="1" gradientUnits="userSpaceOnUse" gradientTransform="translate(-4823.26 -5926.19) scale(11243 6890.39)">
<stop stop-color="#009245"/>
<stop offset="0.0961" stop-color="#0E8F43"/>
<stop offset="0.2774" stop-color="#33863E"/>
<stop offset="0.5248" stop-color="#6E7836"/>
<stop offset="0.8253" stop-color="#BF662B"/>
<stop offset="1" stop-color="#F15A24"/>
</radialGradient>
<radialGradient id="paint20_radial_377_3044" cx="0" cy="0" r="1" gradientUnits="userSpaceOnUse" gradientTransform="translate(-1905.21 -3022.6) scale(5466.92 4543.61)">
<stop stop-color="#009245"/>
<stop offset="0.0961" stop-color="#0E8F43"/>
<stop offset="0.2774" stop-color="#33863E"/>
<stop offset="0.5248" stop-color="#6E7836"/>
<stop offset="0.8253" stop-color="#BF662B"/>
<stop offset="1" stop-color="#F15A24"/>
</radialGradient>
<radialGradient id="paint21_radial_377_3044" cx="0" cy="0" r="1" gradientUnits="userSpaceOnUse" gradientTransform="translate(542.668 -962.478) scale(6551.65 3532.64)">
<stop stop-color="#009245"/>
<stop offset="0.0961" stop-color="#0E8F43"/>
<stop offset="0.2774" stop-color="#33863E"/>
<stop offset="0.5248" stop-color="#6E7836"/>
<stop offset="0.8253" stop-color="#BF662B"/>
<stop offset="1" stop-color="#F15A24"/>
</radialGradient>
<radialGradient id="paint22_radial_377_3044" cx="0" cy="0" r="1" gradientUnits="userSpaceOnUse" gradientTransform="translate(-1074.98 -826.821) scale(3818.23 3777.09)">
<stop stop-color="#009245"/>
<stop offset="0.0961" stop-color="#0E8F43"/>
<stop offset="0.2774" stop-color="#33863E"/>
<stop offset="0.5248" stop-color="#6E7836"/>
<stop offset="0.8253" stop-color="#BF662B"/>
<stop offset="1" stop-color="#F15A24"/>
</radialGradient>
<radialGradient id="paint23_radial_377_3044" cx="0" cy="0" r="1" gradientUnits="userSpaceOnUse" gradientTransform="translate(-3028.2 -6.5084) scale(5788.5 7768.51)">
<stop stop-color="#009245"/>
<stop offset="0.0961" stop-color="#0E8F43"/>
<stop offset="0.2774" stop-color="#33863E"/>
<stop offset="0.5248" stop-color="#6E7836"/>
<stop offset="0.8253" stop-color="#BF662B"/>
<stop offset="1" stop-color="#F15A24"/>
</radialGradient>
<radialGradient id="paint24_radial_377_3044" cx="0" cy="0" r="1" gradientUnits="userSpaceOnUse" gradientTransform="translate(-1340.55 -329.114) scale(4340.11 5079.78)">
<stop stop-color="#009245"/>
<stop offset="0.0961" stop-color="#0E8F43"/>
<stop offset="0.2774" stop-color="#33863E"/>
<stop offset="0.5248" stop-color="#6E7836"/>
<stop offset="0.8253" stop-color="#BF662B"/>
<stop offset="1" stop-color="#F15A24"/>
</radialGradient>
<radialGradient id="paint25_radial_377_3044" cx="0" cy="0" r="1" gradientUnits="userSpaceOnUse" gradientTransform="translate(-6314.36 -514.063) scale(9109.86 9813.34)">
<stop stop-color="#009245"/>
<stop offset="0.0961" stop-color="#0E8F43"/>
<stop offset="0.2774" stop-color="#33863E"/>
<stop offset="0.5248" stop-color="#6E7836"/>
<stop offset="0.8253" stop-color="#BF662B"/>
<stop offset="1" stop-color="#F15A24"/>
</radialGradient>
<radialGradient id="paint26_radial_377_3044" cx="0" cy="0" r="1" gradientUnits="userSpaceOnUse" gradientTransform="translate(-2887.6 -888.035) scale(4864.83 3590.35)">
<stop stop-color="#009245"/>
<stop offset="0.0961" stop-color="#0E8F43"/>
<stop offset="0.2774" stop-color="#33863E"/>
<stop offset="0.5248" stop-color="#6E7836"/>
<stop offset="0.8253" stop-color="#BF662B"/>
<stop offset="1" stop-color="#F15A24"/>
</radialGradient>
<radialGradient id="paint27_radial_377_3044" cx="0" cy="0" r="1" gradientUnits="userSpaceOnUse" gradientTransform="translate(-3068 -1761.27) scale(5222.73 3743.23)">
<stop stop-color="#009245"/>
<stop offset="0.0961" stop-color="#0E8F43"/>
<stop offset="0.2774" stop-color="#33863E"/>
<stop offset="0.5248" stop-color="#6E7836"/>
<stop offset="0.8253" stop-color="#BF662B"/>
<stop offset="1" stop-color="#F15A24"/>
</radialGradient>
<radialGradient id="paint28_radial_377_3044" cx="0" cy="0" r="1" gradientUnits="userSpaceOnUse" gradientTransform="translate(-3074.94 -397.211) scale(5320.59 4606.26)">
<stop stop-color="#009245"/>
<stop offset="0.0961" stop-color="#0E8F43"/>
<stop offset="0.2774" stop-color="#33863E"/>
<stop offset="0.5248" stop-color="#6E7836"/>
<stop offset="0.8253" stop-color="#BF662B"/>
<stop offset="1" stop-color="#F15A24"/>
</radialGradient>
<radialGradient id="paint29_radial_377_3044" cx="0" cy="0" r="1" gradientUnits="userSpaceOnUse" gradientTransform="translate(-2344.66 93.9544) scale(6318.41 9425.68)">
<stop stop-color="#009245"/>
<stop offset="0.0961" stop-color="#0E8F43"/>
<stop offset="0.2774" stop-color="#33863E"/>
<stop offset="0.5248" stop-color="#6E7836"/>
<stop offset="0.8253" stop-color="#BF662B"/>
<stop offset="1" stop-color="#F15A24"/>
</radialGradient>
<radialGradient id="paint30_radial_377_3044" cx="0" cy="0" r="1" gradientUnits="userSpaceOnUse" gradientTransform="translate(-245.914 -77.6617) scale(6093.72 7035.51)">
<stop stop-color="#009245"/>
<stop offset="0.0961" stop-color="#0E8F43"/>
<stop offset="0.2774" stop-color="#33863E"/>
<stop offset="0.5248" stop-color="#6E7836"/>
<stop offset="0.8253" stop-color="#BF662B"/>
<stop offset="1" stop-color="#F15A24"/>
</radialGradient>
<radialGradient id="paint31_radial_377_3044" cx="0" cy="0" r="1" gradientUnits="userSpaceOnUse" gradientTransform="translate(-329.289 -342.002) scale(4442.94 4863.8)">
<stop stop-color="#009245"/>
<stop offset="0.0961" stop-color="#0E8F43"/>
<stop offset="0.2774" stop-color="#33863E"/>
<stop offset="0.5248" stop-color="#6E7836"/>
<stop offset="0.8253" stop-color="#BF662B"/>
<stop offset="1" stop-color="#F15A24"/>
</radialGradient>
<radialGradient id="paint32_radial_377_3044" cx="0" cy="0" r="1" gradientUnits="userSpaceOnUse" gradientTransform="translate(-196.815 -1682.74) scale(4188.31 3753.33)">
<stop stop-color="#009245"/>
<stop offset="0.0961" stop-color="#0E8F43"/>
<stop offset="0.2774" stop-color="#33863E"/>
<stop offset="0.5248" stop-color="#6E7836"/>
<stop offset="0.8253" stop-color="#BF662B"/>
<stop offset="1" stop-color="#F15A24"/>
</radialGradient>
<radialGradient id="paint33_radial_377_3044" cx="0" cy="0" r="1" gradientUnits="userSpaceOnUse" gradientTransform="translate(324.013 -464.834) scale(6235.17 4404.62)">
<stop stop-color="#009245"/>
<stop offset="0.0961" stop-color="#0E8F43"/>
<stop offset="0.2774" stop-color="#33863E"/>
<stop offset="0.5248" stop-color="#6E7836"/>
<stop offset="0.8253" stop-color="#BF662B"/>
<stop offset="1" stop-color="#F15A24"/>
</radialGradient>
<radialGradient id="paint34_radial_377_3044" cx="0" cy="0" r="1" gradientUnits="userSpaceOnUse" gradientTransform="translate(-1211.2 -1678.69) scale(4091.75 3811.57)">
<stop stop-color="#009245"/>
<stop offset="0.0961" stop-color="#0E8F43"/>
<stop offset="0.2774" stop-color="#33863E"/>
<stop offset="0.5248" stop-color="#6E7836"/>
<stop offset="0.8253" stop-color="#BF662B"/>
<stop offset="1" stop-color="#F15A24"/>
</radialGradient>
<radialGradient id="paint35_radial_377_3044" cx="0" cy="0" r="1" gradientUnits="userSpaceOnUse" gradientTransform="translate(-1002.06 64.5293) scale(5679.35 8699.12)">
<stop stop-color="#009245"/>
<stop offset="0.0961" stop-color="#0E8F43"/>
<stop offset="0.2774" stop-color="#33863E"/>
<stop offset="0.5248" stop-color="#6E7836"/>
<stop offset="0.8253" stop-color="#BF662B"/>
<stop offset="1" stop-color="#F15A24"/>
</radialGradient>
<radialGradient id="paint36_radial_377_3044" cx="0" cy="0" r="1" gradientUnits="userSpaceOnUse" gradientTransform="translate(-906.077 -3045.78) scale(5593.05 4531.28)">
<stop stop-color="#009245"/>
<stop offset="0.0961" stop-color="#0E8F43"/>
<stop offset="0.2774" stop-color="#33863E"/>
<stop offset="0.5248" stop-color="#6E7836"/>
<stop offset="0.8253" stop-color="#BF662B"/>
<stop offset="1" stop-color="#F15A24"/>
</radialGradient>
<radialGradient id="paint37_radial_377_3044" cx="0" cy="0" r="1" gradientUnits="userSpaceOnUse" gradientTransform="translate(-55.9385 -832.787) scale(3905.25 3678.92)">
<stop stop-color="#009245"/>
<stop offset="0.0961" stop-color="#0E8F43"/>
<stop offset="0.2774" stop-color="#33863E"/>
<stop offset="0.5248" stop-color="#6E7836"/>
<stop offset="0.8253" stop-color="#BF662B"/>
<stop offset="1" stop-color="#F15A24"/>
</radialGradient>
<linearGradient id="paint38_linear_377_3044" x1="1332.13" y1="249.392" x2="1267.79" y2="932.241" gradientUnits="userSpaceOnUse">
<stop stop-color="#8E42B1"/>
<stop offset="0.2395" stop-color="#9C3BA9"/>
<stop offset="0.6889" stop-color="#C02995"/>
<stop offset="1" stop-color="#DD1B85"/>
</linearGradient>
<linearGradient id="paint39_linear_377_3044" x1="1152.92" y1="-32.2725" x2="1152.92" y2="795.234" gradientUnits="userSpaceOnUse">
<stop offset="0.484375" stop-color="#00A86B"/>
<stop offset="1" stop-color="#004029"/>
</linearGradient>
<clipPath id="clip0_377_3044">
<rect width="1280" height="720" fill="white"/>
</clipPath>
</defs>
</svg>
