<svg width="285" height="261" viewBox="0 0 285 261" fill="none" xmlns="http://www.w3.org/2000/svg">
<g style="mix-blend-mode:screen" opacity="0.05">
<path d="M168.655 267.219C167.16 265.499 165.216 263.032 164.02 261.088C162.226 261.088 159.908 261.163 158.114 261.238C154.451 259.145 149.592 256.379 146.003 254.211C148.545 256.827 151.984 260.266 154.75 262.584C154.376 263.331 153.928 264.453 153.703 265.275C156.993 266.321 161.478 267.592 164.768 268.788C168.655 270.508 173.888 272.676 177.85 274.096C176.355 273.274 174.411 272.078 173.066 271.106C175.308 271.629 178.224 272.452 180.467 273.05C176.878 271.405 172.169 269.088 168.655 267.219Z" fill="white"/>
<path d="M113.484 244.567C111.69 241.651 109.298 237.614 107.728 234.549C106.457 235.072 104.812 235.895 103.616 236.568C100.7 234.026 96.813 230.662 93.9722 227.97C96.5139 231.634 100.028 236.493 102.794 239.932C103.392 241.576 104.364 243.67 105.261 245.165C107.354 246.51 110.269 248.08 112.288 249.426C115.876 252.267 120.735 256.005 124.473 258.621C122.679 256.677 120.287 254.061 118.717 251.968C120.81 252.416 123.651 253.089 125.744 253.538C122.006 250.921 117.072 247.407 113.484 244.567Z" fill="white"/>
<path d="M78.4231 92.1348C78.1988 92.7329 77.9746 93.3309 77.6755 93.929C78.1241 93.0319 78.4979 92.0601 78.9464 91.163C78.7969 91.5368 78.5726 91.8358 78.4231 92.1348Z" fill="white"/>
<path d="M132.097 241.053C135.237 241.95 139.349 243.072 142.489 244.044C139.349 240.829 135.237 236.568 132.247 233.278C132.247 230.139 132.471 225.952 132.77 222.812C129.78 223.037 125.743 223.41 122.752 223.709C119.463 220.644 115.052 216.607 111.838 213.468C113.034 217.43 114.604 222.663 116.099 226.476C114.679 227.896 112.884 229.914 111.614 231.484C114.903 233.204 119.613 234.923 122.528 237.241C125.369 240.605 129.256 245.015 132.321 248.155C132.097 246.062 131.948 243.147 132.097 241.053Z" fill="white"/>
<path d="M80.5144 200.835C79.9163 196.798 79.2435 191.415 78.9445 187.379C77.5988 188.126 75.8794 189.173 74.6833 190.07C73.1134 186.78 71.0949 182.37 69.7493 178.931C70.7959 183.641 72.291 189.92 73.6367 194.481C74.0105 196.2 74.459 198.517 75.0571 200.162L75.1318 200.386L76.1037 202.704C76.926 204.199 78.0474 206.143 78.8697 207.638C81.0377 211.824 84.028 217.356 86.4203 221.393C85.2241 218.403 83.729 214.366 82.7571 211.301C84.4018 211.974 86.5698 212.871 88.2892 213.469C85.897 209.731 82.6824 204.722 80.5144 200.835Z" fill="white"/>
<path d="M83.8041 81.5954L81.3371 86.0808C80.5895 87.6508 79.7672 89.3702 78.9448 91.1644C80.9633 87.5012 83.5798 82.941 85.673 79.5769C85.075 80.175 84.2526 80.9225 83.8041 81.5954Z" fill="white"/>
<path d="M77.6755 93.9309C76.1804 97.2203 74.76 100.659 73.5639 103.575C73.5639 104.098 73.4891 104.771 73.6386 105.294C74.8347 101.855 76.3299 97.594 77.6755 93.9309Z" fill="white"/>
<path d="M70.7207 131.309C69.5994 132.056 68.179 133.178 67.2071 134.149C67.4314 130.636 67.8052 125.926 68.4032 122.487L67.2819 128.543C66.5343 134.897 65.8615 143.419 65.6372 149.774C65.8615 155.455 66.31 163.006 66.9081 168.688C66.6838 165.622 66.3848 161.586 66.4595 158.52C67.2819 159.418 68.478 160.539 69.4499 161.287C68.777 156.801 67.9547 150.82 67.5809 146.335C68.3285 141.775 69.5994 135.719 70.7207 131.309Z" fill="white"/>
<path d="M102.569 195.151C106.082 196.198 110.717 197.618 114.231 198.665C111.988 194.553 108.998 189.021 106.83 184.76C108.325 180.723 110.493 175.49 112.287 171.603C108.549 171.977 103.615 172.575 99.952 173.023C97.485 169.435 94.2704 164.576 91.9529 160.838C91.5791 165.547 91.2053 171.902 91.1306 176.612C88.9626 178.48 86.047 181.097 84.0286 183.19C86.7198 185.358 91.1306 187.526 93.2238 190.367C94.7189 194.852 96.7374 200.758 98.4568 205.094C99.5782 202.104 101.223 198.067 102.569 195.151Z" fill="white"/>
<path d="M278.323 230.664C276.081 230.065 273.165 229.318 270.922 228.795C270.249 232.009 269.95 236.569 268.231 239.261C264.717 242.251 260.008 246.138 256.419 248.979C259.11 248.381 262.774 247.634 265.465 247.035C264.568 249.203 263.222 252.044 262.101 254.063C265.614 251.147 270.324 247.26 273.688 244.12C276.454 242.7 280.117 240.831 282.883 239.335C282.809 237.691 282.51 235.598 282.211 233.953C284.453 230.215 287.294 225.281 289.238 221.394C285.874 224.234 281.613 227.972 278.323 230.664Z" fill="white"/>
<path d="M184.204 264.377C184.503 262.433 185.101 259.817 185.773 257.948C183.68 257.649 180.914 257.275 178.896 257.051C176.578 254.434 173.513 250.996 171.121 248.454C171.644 251.295 172.392 255.032 173.214 257.724C171.794 258.397 169.925 259.294 168.504 259.966C171.27 261.462 175.083 263.106 177.55 265.125C179.569 267.293 182.335 270.134 184.577 272.077C184.278 271.105 183.979 269.685 183.905 268.638C185.474 269.461 187.493 270.657 188.988 271.554C187.568 269.461 185.624 266.545 184.204 264.377Z" fill="white"/>
<path d="M256.496 221.318C257.019 217.356 257.692 212.048 257.916 208.086C254.776 211.375 250.59 215.861 247.45 219.15C243.936 219.075 239.227 219.075 235.713 219.075C236.909 222.14 238.329 226.252 239.227 229.392C236.76 232.831 233.545 237.391 231.003 240.83C234.293 239.708 238.703 238.138 241.993 237.092C242.89 239.185 244.086 242.026 244.759 244.194C247.076 240.755 250.141 236.195 252.309 232.606C255.898 230.663 260.682 228.046 264.196 226.028C261.953 224.532 258.888 222.589 256.496 221.318Z" fill="white"/>
<path d="M231.302 264.005C229.208 265.799 226.442 268.416 224.05 269.687C219.864 271.182 214.182 273.125 209.921 274.396C212.238 274.022 215.378 273.574 217.77 273.2C215.902 274.022 213.36 275.069 211.416 275.742C215.902 274.621 221.882 273.125 226.293 271.705C229.582 270.957 233.918 269.986 237.133 269.238C237.507 268.416 237.88 267.369 238.105 266.547C241.543 264.379 246.029 261.463 249.318 259.071C245.431 260.865 240.198 263.257 236.236 264.902C234.666 264.528 232.722 264.229 231.302 264.005Z" fill="white"/>
<path d="M206.855 273.126C210.07 271.332 214.406 268.94 217.471 266.921C220.611 265.65 224.797 263.931 227.937 262.66C227.115 261.838 225.993 260.791 225.096 260.118C226.965 257.502 229.432 253.988 231.002 251.222C227.862 253.614 223.75 256.679 220.611 259.072C218.667 259.146 216.05 259.221 214.107 259.371C213.658 261.314 213.359 264.155 212.163 265.725C209.546 267.743 206.033 270.435 203.267 272.378C205.211 271.631 207.827 270.659 209.771 269.911C209.098 270.883 207.902 272.229 206.855 273.126Z" fill="white"/>
<path d="M203.566 256.678C203.416 253.912 203.043 250.174 202.669 247.333C201.174 250.025 199.23 253.613 197.81 256.379C195.866 256.753 193.324 257.276 191.38 257.725C192.651 259.519 195.043 261.761 195.417 263.929C195.043 266.172 194.52 269.163 194.221 271.405C195.193 270.359 196.539 269.088 197.66 268.191C198.109 269.163 198.557 270.583 198.781 271.63C199.903 269.462 201.323 266.546 202.22 264.303C204.239 262.584 207.005 260.266 209.173 258.622C207.453 258.024 205.211 257.201 203.566 256.678Z" fill="white"/>
<path d="M205.285 232.157C207.677 233.951 210.742 236.418 212.985 238.362C213.508 234.699 214.106 229.765 214.48 226.027C217.694 223.485 222.03 220.121 225.32 217.579C221.806 216.607 217.021 215.411 213.433 214.514C212.237 210.627 210.518 205.394 209.172 201.506C207.004 205.244 204.088 210.178 201.995 213.991C198.108 214.514 192.875 215.262 188.987 215.86C191.679 218.626 195.267 222.289 197.883 225.205C197.136 228.868 196.239 233.802 195.566 237.465C198.482 235.895 202.369 233.727 205.285 232.157Z" fill="white"/>
<path d="M94.0439 116.059C92.9973 112.545 91.5769 107.761 90.7545 104.173C88.8108 108.882 86.3438 115.087 84.6244 119.872C82.0079 121.89 78.569 124.581 76.1768 126.824C77.7467 129.216 80.8865 131.908 81.7088 134.674C81.4846 139.683 81.3351 146.336 81.3351 151.345C83.503 147.831 86.6429 143.196 89.0351 139.832C92.3245 141.028 96.6604 142.523 99.9498 143.645C98.9779 139.085 97.707 132.954 96.8847 128.319C99.6507 124.058 103.463 118.377 106.454 114.265C102.791 114.863 97.7818 115.461 94.0439 116.059Z" fill="white"/>
<path d="M197.211 132.056C202.07 129.888 208.649 126.973 213.583 124.879C218.293 127.421 224.573 130.86 229.282 133.551C228.535 128.617 227.488 122.113 226.666 117.179C230.404 114.114 235.412 110.152 239.225 107.087C233.992 105.891 226.965 104.396 221.732 103.274C219.265 99.0878 215.975 93.481 213.434 89.2946C211.041 93.2567 207.902 98.5645 205.584 102.527C200.052 103.125 192.726 103.947 187.194 104.62C191.231 107.984 196.538 112.469 200.5 115.908C199.454 120.768 198.183 127.197 197.211 132.056Z" fill="white"/>
<path d="M241.843 34.3482C243.114 36.591 244.684 39.656 245.73 42.0483C247.823 41.4502 250.515 40.7027 252.608 40.1046C256.271 42.0483 261.13 44.6648 264.719 46.6833C262.027 43.9172 258.364 40.3289 255.523 37.7123C255.523 36.7405 255.374 35.3201 255.075 34.423C252.458 33.3764 248.945 32.0307 246.253 31.0589C242.964 29.2647 238.628 26.8725 235.264 25.2278C236.385 26.3492 237.881 27.9191 238.778 29.2647C236.311 28.9657 232.947 28.6666 230.405 28.4424C233.918 30.087 239.077 31.5822 241.843 34.3482Z" fill="white"/>
<path d="M197.212 77.0348C201.772 75.3154 207.902 72.9979 212.537 71.3532C217.247 73.4465 223.526 76.2873 228.161 78.53C226.89 74.6426 225.246 69.4095 223.975 65.5969C226.965 63.4289 230.927 60.5881 233.843 58.4201C229.208 57.4483 222.928 56.3269 218.218 55.4298C215.826 52.5143 212.537 48.5521 210.145 45.7113C208.35 48.4773 205.958 52.0657 204.164 54.757C199.305 55.1308 192.876 55.7289 188.091 56.2522C191.679 58.7192 196.464 62.0085 200.052 64.4755C199.155 68.2134 198.034 73.2222 197.212 77.0348Z" fill="white"/>
<path d="M280.866 53.4847C281.016 53.2604 281.165 53.0362 281.315 52.8119C281.24 52.6624 281.165 52.4381 281.091 52.2886L282.735 53.8585L281.016 52.2138C272.344 44.439 271.447 43.6914 263.747 38.3089C262.924 37.8603 261.728 37.1875 260.906 36.8137C264.345 39.1312 269.055 42.0468 272.269 44.8128C274.886 47.3546 278.399 50.7934 280.866 53.4847Z" fill="white"/>
<path d="M282.137 112.695C279.969 108.06 277.053 101.93 274.736 97.4441C273.241 101.107 271.148 105.966 269.503 109.63C264.868 109.405 258.663 109.181 254.103 109.032C257.616 112.919 262.251 118.227 265.615 122.264C264.644 126.973 263.373 133.178 262.251 137.813C266.363 136.393 271.895 134.449 276.007 133.029C279.52 136.243 284.081 140.505 287.37 143.869C287.071 138.86 286.697 132.206 286.174 127.198C288.865 124.731 292.379 121.441 294.921 118.9C291.108 117.031 286.024 114.489 282.137 112.695Z" fill="white"/>
<path d="M265.24 189.245C267.632 192.086 270.772 195.898 272.94 198.888C274.061 194.403 275.556 188.348 276.453 183.787C279.892 181.47 284.527 178.33 287.891 175.938C284.602 174.069 280.117 171.677 276.678 169.957C275.855 165.247 274.659 158.968 273.538 154.258C270.921 158.145 267.408 163.229 264.716 167.042C260.231 166.892 254.25 166.743 249.765 166.668C252.307 170.406 255.596 175.489 257.913 179.302C256.045 183.638 253.503 189.394 251.484 193.655C255.746 192.31 261.128 190.516 265.24 189.245Z" fill="white"/>
<path d="M270.997 63.5788C268.007 60.1399 263.97 55.6545 260.905 52.3651C260.681 54.9069 260.381 58.3457 259.933 60.8875C256.046 60.5885 250.812 60.2894 246.925 60.0652C250.738 63.0555 255.821 67.0924 259.559 70.2322C259.783 73.9701 260.008 78.9789 260.008 82.7168C263.372 81.5954 267.857 80.175 271.296 79.1284C275.258 81.8945 280.491 85.7071 284.304 88.6227C282.585 84.4362 280.267 78.9041 278.398 74.7925C279.819 73.073 281.613 70.6808 282.884 68.8118C279.295 67.1672 274.511 65.0739 270.997 63.5788Z" fill="white"/>
<path d="M196.612 37.5627C200.051 36.5161 204.686 35.1704 208.125 34.1238C211.938 35.4695 217.021 37.2636 220.834 38.684C219.414 36.2918 217.47 33.152 215.9 30.8345C217.545 29.7131 219.787 28.2927 221.432 27.0966C218.143 26.5733 213.807 25.8257 210.517 25.3771C208.574 24.0315 206.032 22.2373 204.013 20.9664C203.116 22.2373 201.845 23.8072 200.948 25.0034C197.659 25.1529 193.248 25.4519 189.959 25.7509C192.501 27.0218 195.865 28.816 198.407 30.1616C197.883 32.3296 197.136 35.3199 196.612 37.5627Z" fill="white"/>
<path d="M123.051 46.4592C124.92 43.9922 127.387 40.7029 129.48 38.3854C132.994 36.2921 137.704 33.5261 141.292 31.5824C139.423 31.9562 136.881 32.4795 135.087 32.928C136.956 31.5076 139.572 29.7135 141.591 28.5173C137.928 30.461 133.069 33.0776 129.555 35.2455C127.536 36.3669 124.92 37.8621 123.051 39.1329C121.855 40.1048 120.434 41.5252 119.388 42.6466C116.248 45.4874 112.062 49.3 109.071 52.2903C112.136 50.0476 116.248 47.0573 119.388 44.9641C120.36 45.4126 121.855 46.0854 123.051 46.4592Z" fill="white"/>
<path d="M136.731 68.5868C135.086 72.5489 132.844 77.8567 131.348 81.8937C136.058 79.3519 142.413 75.9878 147.197 73.5208C151.608 74.8664 157.439 76.7354 161.85 78.1558C161.401 74.4179 160.803 69.4091 160.429 65.6712C164.317 62.9052 169.55 59.3168 173.512 56.6255C168.802 56.476 162.522 56.2517 157.738 56.177C156.467 53.5604 154.748 50.1216 153.626 47.4303C150.636 50.4954 146.674 54.6818 143.833 57.8216C139.273 59.0178 133.292 60.6624 128.807 61.9333C131.049 64.0265 134.264 66.6431 136.731 68.5868Z" fill="white"/>
<path d="M138.827 192.985C142.266 190.219 146.901 186.63 150.49 184.089C155.05 185.733 161.03 187.976 165.516 189.77C164.096 185.285 162.152 179.379 160.731 174.893C164.021 171.305 168.506 166.52 171.87 163.082C166.637 162.708 159.76 162.334 154.527 162.035C151.76 157.998 148.097 152.541 145.331 148.504C143.537 153.064 141.145 159.194 139.5 163.829C134.94 165.25 128.959 167.193 124.474 168.763C128.361 171.454 133.594 174.968 137.556 177.659C137.93 182.294 138.379 188.424 138.827 192.985Z" fill="white"/>
<path d="M91.4287 81.5941C89.485 85.8552 87.018 91.4621 85.2986 95.798C88.2141 92.6582 92.2511 88.4718 95.3161 85.5562C97.7084 86.4533 100.848 87.5747 103.24 88.4718C103.764 84.6591 104.511 79.6503 105.259 75.9125C108.773 72.5484 113.482 68.0629 117.071 64.8483C114.006 65.2968 109.894 65.9697 106.829 66.5677C107.277 63.9512 107.875 60.5123 108.623 57.9706C105.558 61.4842 101.521 66.2687 98.6055 69.9318C96.0637 71.5765 92.7744 73.894 90.3821 75.7629C90.6064 77.4824 91.5782 79.7999 91.4287 81.5941Z" fill="white"/>
<path d="M219.862 161.063C217.844 156.577 215.078 150.597 212.985 146.186C210.518 150.447 207.154 156.054 204.687 160.315C199.528 160.913 192.576 161.81 187.417 162.483C191.081 165.772 196.015 170.183 199.603 173.547C198.706 178.107 197.435 184.163 196.538 188.648C200.799 186.63 206.555 183.939 210.817 181.92C214.704 184.238 219.862 187.452 223.6 189.919C223.451 185.359 223.226 179.229 223.002 174.594C226.815 171.603 231.973 167.641 235.861 164.726C231.151 163.604 224.722 162.109 219.862 161.063Z" fill="white"/>
<path d="M158.563 35.8423C161.628 36.5899 165.74 37.7113 168.879 38.5336C169.029 36.2909 169.253 33.3005 169.552 31.0578C172.692 29.5626 176.804 27.5442 179.944 26.049C176.804 26.049 172.617 26.049 169.478 26.049C169.328 24.9277 169.104 23.3577 169.179 22.1616C166.412 23.582 162.749 25.6005 160.058 27.1704C156.843 27.918 152.508 28.8898 149.293 29.7122C150.19 30.7588 151.386 32.1792 152.358 33.0763C150.115 35.5433 147.125 38.7579 145.032 41.2996C149.069 39.655 154.451 37.4122 158.563 35.8423Z" fill="white"/>
<path d="M164.094 215.336C161.328 211.747 157.665 206.963 154.824 203.449C154.077 207.412 153.18 212.719 152.731 216.681C149.442 217.803 145.106 219.373 141.891 220.569C145.479 222.812 151.311 224.681 153.927 228.119C155.123 231.783 156.843 236.642 158.263 240.23C160.057 238.137 162.524 235.446 164.393 233.502C167.757 234.848 172.168 236.717 175.457 238.212C173.887 234.623 171.869 229.839 170.299 226.176C172.318 223.185 175.158 219.223 177.326 216.308C173.439 216.009 168.056 215.635 164.094 215.336Z" fill="white"/>
<path d="M152.208 104.322C150.04 100.509 147.124 95.4254 144.956 91.6128C142.265 95.9487 138.752 101.78 136.21 106.191C131.201 107.611 124.548 109.704 119.614 111.274C123.052 114.04 127.762 117.703 131.276 120.395C130.528 125.329 129.631 131.982 129.033 136.916C133.518 133.926 139.574 129.964 144.134 127.123C149.068 128.917 155.647 131.309 160.506 133.103C159.459 128.394 158.039 122.039 157.067 117.255C161.029 113.592 166.412 108.658 170.449 105.069C164.992 104.92 157.74 104.546 152.208 104.322Z" fill="white"/>
<path d="M224.124 280.303C230.702 290.47 243.187 297.646 255.073 298.768C275.407 300.637 298.881 312 298.881 312C298.881 312 292.602 266.622 269.128 268.491C287.892 266.622 300.451 276.041 311.366 277.91C322.281 279.779 339.55 277.91 344.259 287.33C345.829 268.416 342.689 247.633 308.226 241.952C331.7 240.083 347.324 230.589 355.174 223.038C363.024 215.488 377.078 215.488 377.078 215.488C377.078 215.488 353.604 190.892 333.27 196.574C359.884 189.023 369.303 160.69 384.928 160.69C367.733 149.327 356.744 139.907 339.55 156.877C361.454 134.226 364.594 92.5857 352.034 67.9904C333.27 81.2225 330.13 100.136 330.13 100.136C330.13 100.136 308.301 -1.83343 259.783 0.0355126C266.063 22.6871 269.203 35.9193 269.203 35.9193C269.277 36.2931 271.296 37.1154 271.595 37.2649C311.291 60.8136 333.195 104.996 331.177 150.673C331.027 153.887 330.803 157.102 330.429 160.316C329.532 168.241 328.037 176.09 326.018 183.865C322.953 195.378 318.468 206.591 312.487 216.983C297.984 242.176 276.678 264.977 248.644 274.771C242.065 277.088 235.188 278.957 228.31 280.153C226.89 280.452 225.544 280.377 224.124 280.303Z" fill="white"/>
<path d="M160.879 280.293C154.3 290.46 141.816 297.636 129.929 298.758C109.595 300.627 86.121 311.99 86.121 311.99C86.121 311.99 92.4007 266.612 115.875 268.481C97.1104 266.612 84.5511 276.031 73.6365 277.9C62.7218 279.769 45.4528 277.9 40.743 287.32C39.1731 268.406 42.3129 247.623 76.7763 241.942C53.3023 240.073 37.6779 230.579 29.8284 223.028C21.9788 215.477 7.92433 215.477 7.92433 215.477C7.92433 215.477 31.3983 190.882 51.7324 196.564C25.0439 189.088 15.6244 160.755 0 160.755C17.1943 149.392 28.1837 139.972 45.378 156.942C23.474 134.29 20.3341 92.6503 32.8934 68.055C51.6577 81.2871 54.7975 100.201 54.7975 100.201C54.7975 100.201 76.7015 -1.84358 125.219 0.0253624C118.94 22.677 115.8 35.9091 115.8 35.9091C115.725 36.2829 113.707 37.1053 113.408 37.2548C73.7112 60.8782 51.8819 105.06 53.8256 150.737C53.9752 153.952 54.1994 157.166 54.5732 160.381C55.4703 168.305 56.9655 176.155 58.9839 183.93C62.049 195.442 66.5345 206.656 72.5151 217.047C87.0181 242.241 108.324 265.042 136.358 274.835C142.937 277.153 149.815 279.022 156.692 280.218C158.113 280.442 159.533 280.367 160.879 280.293Z" fill="white"/>
</g>
</svg>
