<svg width="25" height="24" viewBox="0 0 25 24" fill="none" xmlns="http://www.w3.org/2000/svg">
<path d="M3.4616 13.9306C2.7486 12.7423 2.7486 11.2577 3.4616 10.0694V10.0694C3.67918 9.70674 4.03964 9.45272 4.45432 9.36978L6.14735 9.03117C6.24821 9.011 6.33913 8.95691 6.40499 8.87788L8.47407 6.39498C9.65662 4.97592 10.2479 4.26638 10.7756 4.45742C11.3032 4.64846 11.3032 5.57207 11.3032 7.41928L11.3032 16.5807C11.3032 18.4279 11.3032 19.3515 10.7756 19.5426C10.2479 19.7336 9.65662 19.0241 8.47407 17.605L6.40499 15.1221C6.33913 15.0431 6.24822 14.989 6.14735 14.9688L4.45432 14.6302C4.03964 14.5473 3.67918 14.2933 3.4616 13.9306V13.9306Z" stroke="#00A86B"/>
<path d="M15.8388 8.46447C16.7716 9.39732 17.298 10.6611 17.3032 11.9803C17.3084 13.2996 16.792 14.5674 15.8665 15.5076" stroke="#00A86B" stroke-linecap="round"/>
<path d="M19.9601 6.34314C21.4526 7.83572 22.2948 9.85769 22.3032 11.9685C22.3115 14.0793 21.4852 16.1078 20.0045 17.6121" stroke="#00A86B" stroke-linecap="round"/>
</svg>
