<svg width="44" height="44" viewBox="0 0 44 44" fill="none" xmlns="http://www.w3.org/2000/svg">
<path d="M1.375 22C1.375 26.0562 2.54375 29.8375 4.5375 33H39.3937C41.3875 29.8375 42.5563 26.0562 42.5563 22C42.5563 17.9437 41.3875 14.1625 39.3937 11H4.5375C2.54375 14.1625 1.375 17.9437 1.375 22Z" fill="#ED4C5C"/>
<path d="M39.4625 11C35.8187 5.225 29.3562 1.375 22 1.375C14.6437 1.375 8.18123 5.225 4.53748 11H39.4625Z" fill="#2A5F9E"/>
<path d="M4.53748 33C8.18123 38.775 14.6437 42.625 22 42.625C29.3562 42.625 35.8187 38.775 39.4625 33H4.53748Z" fill="#2A5F9E"/>
<path d="M31.5563 24.5438V22.4125C31.625 22.1375 31.8312 21.9312 32.0375 21.8625V19.9375C31.8312 19.9375 31.6937 20.2125 31.6937 20.2812V19.4562C31.625 19.3875 31.4875 19.3875 31.35 19.4562V19.6625H30.9375V18.7687C30.8 18.7687 30.8 19.1812 30.525 19.1812C30.3875 19.1812 30.3875 18.975 30.4562 18.8375C30.525 18.7 30.5938 18.4938 30.525 18.2188C30.4563 18.425 30.25 18.5625 30.25 18.3563C30.3188 18.0813 30.525 18.0125 30.3875 17.6C30.3188 17.9438 30.1125 17.9437 30.1813 17.7375C30.25 17.5312 30.3875 17.3937 30.1813 17.05C30.1125 17.3937 29.975 17.3938 29.975 17.1875C29.975 16.8438 29.975 16.5 29.5625 16.3625C29.5625 16.3625 29.5625 16.0187 29.3563 16.0187C29.15 16.0187 29.15 16.3625 29.15 16.3625C28.7375 16.5 28.7375 16.8438 28.7375 17.1875C28.7375 17.3938 28.6 17.4625 28.5312 17.05C28.3937 17.3937 28.5312 17.4625 28.5312 17.7375C28.6 17.9437 28.3938 17.9438 28.325 17.6C28.1875 18.0125 28.3938 18.0813 28.4625 18.3563C28.5313 18.4938 28.2563 18.425 28.1875 18.15C28.05 18.4937 28.1875 18.7 28.2562 18.7687C28.325 18.9062 28.325 19.1125 28.1875 19.1125C27.9125 19.1125 27.9125 18.7 27.775 18.7V20.35H24.5438V18.9062C24.3375 18.975 24.2687 19.1812 24.2687 19.1812V19.4562H24.0625C24.0625 19.4562 23.925 19.4562 23.925 19.1812C23.925 18.9062 23.9938 18.7687 24.2 18.7687V18.2188C24.2 18.2188 23.7188 18.2875 23.7188 18.8375V18.3563C23.5813 18.3563 23.5812 18.5625 23.5812 19.0438H23.4437V18.5625C23.4437 18.2875 23.7188 18.2875 23.7188 18.0812C23.7188 18.0812 23.7875 17.7375 23.65 17.6C23.5125 18.0125 23.375 17.9437 23.375 17.7375C23.375 17.6 23.5125 17.4625 23.7188 17.05C23.7875 16.9125 23.7188 16.5687 23.65 16.4312C23.5813 16.775 23.5812 16.9125 23.4437 16.9125C23.375 16.9125 23.3063 16.8437 23.3063 16.7062C23.3063 16.5 23.4438 16.4313 23.5125 16.225C23.5813 16.0188 23.5125 15.8125 23.4437 15.675C23.375 16.0187 23.375 16.0875 23.3063 16.0875C23.0313 16.0187 23.3062 15.6063 23.375 15.4688C23.4438 15.2625 23.3063 15.125 23.3063 15.125C23.2375 15.4 23.1687 15.4 23.1 15.4C22.9625 15.4 23.0313 15.1937 23.1688 15.0562C23.2375 14.9875 23.2375 14.85 23.1688 14.7125C23.1 14.9187 22.8938 14.9188 22.9625 14.7812L23.0312 14.3687H22.825V13.475H22.55C22.55 13.2688 22.4125 13.0625 22.1375 13.0625C21.8625 13.0625 21.7937 13.3375 21.725 13.475H21.3125V14.3687H21.1063L21.175 14.85C21.175 14.9875 21.0375 14.9875 20.9688 14.7812C20.9 14.9188 20.8313 15.0562 20.9688 15.125C21.1062 15.2625 21.1062 15.4688 21.0375 15.4688C20.9688 15.4688 20.9 15.4688 20.8312 15.1938C20.8312 15.1938 20.6938 15.4 20.7625 15.5375C20.8313 15.6063 21.1062 16.0187 20.8312 16.1562C20.6937 16.1562 20.6938 16.0187 20.6938 15.7437C20.5563 15.8812 20.4875 16.0875 20.625 16.2938C20.6938 16.5 20.8312 16.5687 20.8312 16.775C20.8312 16.9125 20.7625 16.9813 20.6938 16.9813C20.5563 16.9813 20.4875 16.8438 20.4875 16.5C20.4187 16.6375 20.35 16.9812 20.4188 17.1187C20.625 17.4625 20.7625 17.6 20.7625 17.8062C20.7625 17.9437 20.5562 18.0813 20.4875 17.6688C20.4187 17.8063 20.4188 18.15 20.4188 18.15C20.4188 18.3562 20.6938 18.3563 20.6938 18.6313V19.1812H20.5562C20.5562 18.7 20.5563 18.4937 20.35 18.4937V18.975C20.35 18.425 19.8687 18.3563 19.8687 18.3563V18.9062C20.075 18.9062 20.1437 19.0438 20.1437 19.3188C20.1437 19.5938 20.0063 19.5938 20.0063 19.5938H19.7313V19.3188C19.7313 19.3188 19.6625 19.1125 19.4562 19.0438V20.4875H16.2938V18.8375C16.1563 18.8375 16.1563 19.25 15.8813 19.25C15.7438 19.25 15.7438 19.0437 15.8125 18.9062C15.8812 18.7688 15.95 18.5625 15.8813 18.2875C15.8125 18.5625 15.6063 18.6312 15.6063 18.4937C15.675 18.2187 15.8812 18.15 15.7437 17.7375C15.675 18.0812 15.4688 18.0813 15.5375 17.875C15.6063 17.6687 15.7438 17.5312 15.5375 17.1875C15.4688 17.5312 15.3312 17.5313 15.3312 17.325C15.3312 16.9813 15.3313 16.6375 14.9188 16.5C14.9188 16.5 14.9187 16.1562 14.7125 16.1562C14.5062 16.1562 14.4375 16.3625 14.4375 16.3625C14.025 16.5 14.025 16.8438 14.025 17.1875C14.025 17.3938 13.8875 17.4625 13.8188 17.05C13.6813 17.3937 13.8188 17.4625 13.8188 17.7375C13.8875 17.9437 13.6812 17.9438 13.6125 17.6C13.475 18.0125 13.6812 18.0813 13.75 18.3563C13.8188 18.4938 13.5438 18.425 13.475 18.15C13.3375 18.4937 13.475 18.7 13.5438 18.7687C13.6125 18.9062 13.6125 19.1125 13.475 19.1125C13.2 19.1125 13.2 18.7 13.0625 18.7V19.5938H12.7188V19.3875C12.5813 19.3188 12.4437 19.3188 12.375 19.3875V20.2125C12.375 20.2125 12.2375 19.8687 12.0312 19.8687V21.8625C12.1688 21.9312 12.4438 22.1375 12.5125 22.4125V24.5438C12.4438 24.75 12.2375 25.025 12.1 25.0938H32.1063C31.8313 25.025 31.625 24.8188 31.5563 24.5438Z" fill="#E2E2E2"/>
<path d="M34.1688 28.9437V27.6375H33.4813V26.5375H32.8625V25.7125H32.5188V25.0938H11.4813V25.7125H11.1375V26.5375H10.5188V27.6375H9.83127V28.9437H9.21252V30.25H34.7875V28.9437H34.1688Z" fill="white"/>
<path d="M15.675 25.0937C15.5375 25.025 15.2625 24.8187 15.2625 24.5437V22.275L15.4687 21.9312H15.5375V21.2437C15.4 21.3125 15.3313 21.3812 15.1938 21.45C15.1938 21.3812 15.125 21.3125 15.125 21.2437C15.1937 21.175 15.4688 20.8312 15.5375 20.6937V20.1437C15.4688 20.1437 15.4 20.2125 15.3312 20.2125C15.4687 20.075 15.5375 19.9375 15.5375 19.8V19.25C15.4 19.25 15.1937 19.3875 15.125 19.5937C15.125 19.4562 15.0562 19.3187 14.9875 19.1812C15.0562 19.1125 15.2625 18.9062 15.2625 18.7687V18.425C15.125 18.425 15.0563 18.4937 14.9188 18.6312C14.9188 18.5625 14.9188 18.5625 14.85 18.4937L15.0562 18.2187V17.875C14.9875 17.875 14.9188 17.9437 14.85 18.0125C14.85 17.9437 14.7812 17.875 14.7812 17.8062L14.85 17.6V17.325C14.7813 17.325 14.7812 17.325 14.7125 17.3937C14.7125 17.325 14.6437 17.2562 14.6437 17.2562H14.7125L14.9188 17.1187V16.9125C14.85 16.9125 14.85 16.9125 14.7812 16.9812C14.7125 16.8437 14.6438 16.775 14.5063 16.7062C14.3688 16.775 14.3 16.8437 14.2313 16.9812C14.1625 16.9125 14.1625 16.9125 14.0937 16.9125V17.1187L14.3 17.2562H14.4375C14.4375 17.325 14.3687 17.325 14.3687 17.3937C14.3 17.325 14.3 17.325 14.2313 17.325V17.6L14.3 17.8062C14.3 17.875 14.2313 17.875 14.2313 17.9437C14.1625 17.8062 14.0937 17.8062 14.025 17.8062V18.15L14.2313 18.425C14.2313 18.4937 14.2313 18.4937 14.1625 18.5625C14.0938 18.425 13.9563 18.3562 13.8188 18.3562V18.7C13.8188 18.8375 14.025 19.0437 14.0937 19.1125C14.025 19.25 14.025 19.3875 13.9562 19.525C13.8187 19.3187 13.6813 19.1812 13.5438 19.1812V19.7312C13.5438 19.8 13.6812 20.0062 13.75 20.1437C13.6812 20.075 13.6125 20.075 13.5438 20.075V20.625C13.6125 20.7625 13.8187 21.0375 13.9562 21.1062C13.9562 21.175 13.8875 21.2437 13.8875 21.3125C13.8188 21.3812 13.75 21.3125 13.6125 21.3125V22L13.8188 22.3437V24.6125C13.8188 24.8187 13.5437 25.025 13.4062 25.1625H13.75V30.25H15.3312V25.0937H15.675Z" fill="white"/>
<path d="M23.1688 19.4562V18.7687C22.8938 18.8375 22.7563 19.0437 22.6875 19.1812C22.6875 19.0437 22.6188 18.9062 22.55 18.7687C22.6188 18.4937 22.6876 18.3562 22.8251 18.2187H22.8938V17.6C22.6875 17.6687 22.5501 17.8062 22.4813 17.9437C22.4813 17.875 22.4125 17.6687 22.3438 17.5312L22.55 17.1875H22.8251V16.5687C22.6188 16.6375 22.4813 16.775 22.4813 16.9125C22.4813 16.8437 22.4125 16.6375 22.3438 16.5L22.6875 16.225V15.8125C22.55 15.8812 22.3438 15.8812 22.3438 16.1562C22.3438 16.0187 22.2751 15.8812 22.2751 15.8125L22.6188 15.5375V15.125C22.4813 15.125 22.3438 15.1937 22.3438 15.3312C22.3438 15.2625 22.2751 15.1937 22.2751 15.125L22.4813 14.9875V14.6437C22.4126 14.6437 22.2751 14.7125 22.2751 14.85C22.2751 14.6437 22.2063 14.6437 22.0688 14.575C22 14.6437 21.9313 14.6437 21.8625 14.85C21.8625 14.7125 21.725 14.7125 21.6563 14.6437V14.9875L21.8625 15.125C21.8625 15.1937 21.7938 15.2625 21.7938 15.3312C21.7938 15.125 21.6563 15.125 21.5188 15.125V15.4687L21.8625 15.7437C21.7938 15.8125 21.7938 15.95 21.7938 16.0875C21.7938 15.8125 21.5875 15.8125 21.45 15.7437V16.225L21.725 16.5C21.6563 16.6375 21.5875 16.8437 21.5875 16.9125C21.5188 16.775 21.3813 16.6375 21.2438 16.5687V17.1875H21.3125L21.5188 17.5312C21.45 17.6687 21.3813 17.8062 21.3813 17.9437C21.3125 17.8062 21.175 17.6687 20.9688 17.6V18.2187H21.0375C21.175 18.2875 21.3125 18.4937 21.3125 18.7687V19.1125C21.2438 18.975 21.0375 18.7687 20.8313 18.7V19.3875H20.9688C21.175 19.6625 21.2438 20.075 21.2438 20.35L21.0375 20.1437V20.8312H21.725C21.5875 21.0375 21.5188 21.2437 21.5188 21.5187C21.3125 21.45 21.3125 21.3812 21.1063 21.3125V22L21.2438 22.2062V24.6125C21.2438 24.8187 20.9688 25.025 20.8313 25.1625H21.175V30.25H22.7563V25.0937H23.1C22.9625 25.025 22.6875 24.8187 22.6875 24.5437V22.1375L22.8251 21.9312V21.2437C22.5501 21.3125 22.5501 21.3812 22.4813 21.5875C22.4813 21.3812 22.4126 21.1062 22.2751 20.9H22.9626V20.2125C22.8938 20.2812 22.825 20.2812 22.7563 20.35C22.7563 20.0062 22.825 19.6625 23.0313 19.3875C23.1 19.4562 23.1688 19.4562 23.1688 19.4562Z" fill="white"/>
<path d="M30.525 25.0937C30.3875 25.025 30.1125 24.8187 30.1125 24.5437V22.275L30.3188 21.9312H30.3875V21.2437C30.25 21.3125 30.1813 21.3812 30.0438 21.3812C30.0438 21.3125 29.975 21.2437 29.975 21.175C30.0438 21.0375 30.3188 20.8312 30.3875 20.6937V20.1437C30.3188 20.1437 30.25 20.2125 30.1813 20.2125C30.3188 20.075 30.3875 19.8687 30.3875 19.8V19.25C30.25 19.25 30.0438 19.3875 29.975 19.5937C29.975 19.4562 29.9063 19.3187 29.8375 19.1812C29.9063 19.1125 30.1125 18.9062 30.1125 18.7687V18.425C29.975 18.425 29.9063 18.4937 29.7688 18.6312C29.7688 18.5625 29.7688 18.5625 29.7 18.4937L29.9063 18.2187V17.875C29.8375 17.875 29.7688 17.9437 29.7 18.0125C29.7 17.9437 29.6313 17.875 29.6313 17.875L29.7 17.6687V17.3937C29.6313 17.3937 29.6313 17.3937 29.5625 17.4625C29.5625 17.3937 29.4938 17.325 29.4938 17.325H29.5625L29.7688 17.1875V16.9812C29.7 16.9812 29.7 16.9812 29.6313 17.05C29.5625 16.9125 29.4938 16.8437 29.3563 16.775C29.2188 16.8437 29.15 16.9125 29.0813 17.05C29.0125 16.9812 29.0125 16.9812 28.9438 16.9812V17.1875L29.15 17.325H29.2188C29.2188 17.3937 29.15 17.3937 29.15 17.4625C29.0813 17.3937 29.0813 17.3937 29.0125 17.3937V17.6687L29.0813 17.875C29.0125 17.9437 29.0125 17.9437 29.0125 18.0812C28.9438 17.9437 28.875 17.9437 28.8063 17.9437V18.2875L29.0125 18.5625C29.0125 18.6312 29.0125 18.6312 28.9438 18.7C28.875 18.5625 28.8063 18.5625 28.6688 18.4937V18.8375C28.6688 18.975 28.875 19.1812 28.9438 19.25C28.875 19.3875 28.875 19.525 28.8063 19.6625C28.6688 19.4562 28.5313 19.3187 28.3938 19.3187V19.8687C28.3938 19.9375 28.5313 20.1437 28.6 20.2812C28.5313 20.2125 28.4625 20.2125 28.3938 20.2125V20.7625C28.4625 20.9 28.7375 21.175 28.8063 21.3125C28.8063 21.3812 28.7375 21.45 28.7375 21.5187C28.6688 21.45 28.5313 21.3812 28.3938 21.3125V22H28.4625L28.6688 22.3437V24.6125C28.6688 24.8187 28.3938 25.025 28.2563 25.1625H28.6V30.25H30.1813V25.0937H30.525Z" fill="white"/>
</svg>
