<svg width="44" height="44" viewBox="0 0 44 44" fill="none" xmlns="http://www.w3.org/2000/svg">
<path d="M21.8625 42.625C33.275 42.625 42.4875 33.4125 42.4875 22H1.23749C1.23749 33.4125 10.45 42.625 21.8625 42.625Z" fill="#DE2910"/>
<path d="M21.8625 1.375C10.45 1.375 1.23749 10.5875 1.23749 22H42.4875C42.4875 10.5875 33.275 1.375 21.8625 1.375Z" fill="#DE2910"/>
<path d="M21.2351 22.3334C13.2123 18.9428 16.7686 8.4939 24.4415 9.01911C22.8893 9.81687 22.6643 11.3054 23.5508 12.6844C24.5434 14.2282 23.4593 16.7123 22.1175 17.3158C19.9121 18.3086 19.4706 20.9552 21.2351 22.3334Z" fill="white"/>
<path d="M20.8014 14.7885L20.3502 15.4969L20.1868 14.6726L19.3728 14.4623L20.1064 14.0515L20.0553 13.2132L20.6715 13.7841L21.4532 13.4759L21.1018 14.2388L21.6354 14.8871L20.8014 14.7885ZM21.2806 22.2455C20.3103 21.7475 19.5279 20.7093 19.1871 19.4688C18.7972 18.0459 19.0215 16.516 19.8032 15.274L19.6349 15.1678C18.8239 16.458 18.5912 18.0444 18.9957 19.5213C19.3561 20.8338 20.1553 21.8914 21.1898 22.4224L21.2806 22.2455Z" fill="#DE2910"/>
<path d="M21.2434 22.3354C21.9888 13.6575 33.0253 13.8108 34.8969 21.2705C33.6585 20.0408 32.1733 20.2867 31.1357 21.556C29.9742 22.9771 27.2767 22.7137 26.288 21.624C24.6624 19.8334 22.0089 20.2313 21.2434 22.3354Z" fill="white"/>
<path d="M28.2849 19.5913L27.4719 19.3811L28.2053 18.971L28.1538 18.1319L28.7711 18.7027L29.5527 18.395L29.2002 19.1574L29.7347 19.8056L28.9006 19.7073L28.449 20.415L28.285 19.5913H28.2849ZM21.3411 22.3515C21.5148 21.2747 22.2605 20.2098 23.3349 19.5024C24.5678 18.6919 26.092 18.4323 27.5148 18.7921L27.5639 18.5992C26.0861 18.2266 24.5055 18.4955 23.2259 19.3365C22.089 20.0848 21.3301 21.1718 21.1448 22.3197L21.3411 22.3515Z" fill="#DE2910"/>
<path d="M21.244 22.3439C29.7275 20.3712 32.992 30.9149 26.4759 35.0001C27.2627 33.4422 26.5699 32.1057 25.0422 31.5112C23.3316 30.8456 22.7486 28.1988 23.4794 26.9218C24.6801 24.8224 23.4816 22.4217 21.244 22.3438V22.3439Z" fill="white"/>
<path d="M26.0298 28.1927L25.9784 27.3545L26.5952 27.9254L27.3772 27.617L27.0252 28.3805L27.5593 29.0287L26.7253 28.9291L26.274 29.6379L26.1098 28.8141L25.2971 28.6033L26.0298 28.1928V28.1927ZM21.2589 22.4417C22.3366 22.2742 23.5798 22.6543 24.5847 23.4575C25.7365 24.3795 26.4543 25.7491 26.552 27.2133L26.7506 27.2003C26.6482 25.6798 25.904 24.2597 24.7087 23.3026C23.6457 22.4526 22.3775 22.0667 21.2285 22.2452L21.2589 22.4417Z" fill="#DE2910"/>
<path d="M21.2363 22.347C25.7339 29.8058 16.7151 36.1687 10.8162 31.2338C12.541 31.5008 13.5979 30.4288 13.6913 28.7921C13.7957 26.9597 16.1328 25.5872 17.5731 25.8877C19.9408 26.3808 21.8537 24.4992 21.2363 22.347Z" fill="white"/>
<path d="M17.1524 28.7059L17.9338 28.398L17.5815 29.1609L18.1163 29.8095L17.2814 29.7107L16.83 30.419L16.667 29.5949L15.8535 29.3847L16.5862 28.974L16.5355 28.136L17.1524 28.7059ZM21.1478 22.3914C21.6401 23.3646 21.6628 24.6644 21.2094 25.8684C20.6884 27.2487 19.6077 28.3546 18.2453 28.8999L18.319 29.0848C19.7335 28.5176 20.8542 27.3709 21.395 25.9384C21.875 24.6648 21.85 23.3394 21.3252 22.3017L21.1478 22.3914V22.3914Z" fill="#DE2910"/>
<path d="M21.2308 22.3406C15.5269 28.9229 6.68838 22.3118 9.55893 15.1767C9.83804 16.8995 11.1842 17.5735 12.7696 17.1565C14.5446 16.6896 16.572 18.4882 16.7315 19.9509C16.9941 22.355 19.3747 23.5928 21.2308 22.3406Z" fill="white"/>
<path d="M13.9212 20.4217L14.4554 21.0698L13.621 20.9705L13.1695 21.6795L13.0055 20.8549L12.1924 20.6445L12.9257 20.2349L12.8742 19.3962L13.4912 19.9662L14.2726 19.659L13.9211 20.4217H13.9212ZM21.1613 22.2703C20.3877 23.0392 19.1587 23.4625 17.8736 23.4033C16.3998 23.3344 15.014 22.6483 14.0744 21.5212L13.9214 21.6484C14.8979 22.8183 16.3348 23.5299 17.8643 23.6015C19.224 23.6644 20.4768 23.2311 21.3014 22.4114L21.1612 22.2703H21.1613Z" fill="#DE2910"/>
</svg>
