<svg width="44" height="44" viewBox="0 0 44 44" fill="none" xmlns="http://www.w3.org/2000/svg">
<path d="M22 42.625C33.4125 42.625 42.625 33.4125 42.625 22H1.375C1.375 33.4125 10.5875 42.625 22 42.625Z" fill="#F9F9F9"/>
<path d="M22 1.375C10.5875 1.375 1.375 10.5875 1.375 22H42.625C42.625 10.5875 33.4125 1.375 22 1.375Z" fill="#ED4C5C"/>
<path d="M14.575 12.0312L13.75 11.3438H14.7812L15.125 10.3125L15.4688 11.3438H16.5L15.675 12.0312L15.95 13.0625L15.125 12.4438L14.3 13.0625L14.575 12.0312Z" fill="#F9F9F9"/>
<path d="M20.075 12.0312L19.25 11.3438H20.2812L20.625 10.3125L20.9688 11.3438H22L21.175 12.0312L21.45 13.0625L20.625 12.4438L19.8 13.0625L20.075 12.0312Z" fill="#F9F9F9"/>
<path d="M15.2625 15.4688L14.4375 14.7812H15.4688L15.8125 13.75L16.1562 14.7812H17.1875L16.3625 15.4688L16.6375 16.5L15.8125 15.8813L14.9875 16.5L15.2625 15.4688Z" fill="#F9F9F9"/>
<path d="M19.3875 15.4688L18.5625 14.7812H19.5938L19.9375 13.75L20.2812 14.7812H21.3125L20.4875 15.4688L20.7625 16.5L19.9375 15.8813L19.1125 16.5L19.3875 15.4688Z" fill="#F9F9F9"/>
<path d="M17.325 9.96875L16.5 9.28125H17.5312L17.875 8.25L18.2188 9.28125H19.25L18.425 9.96875L18.7 11L17.875 10.3813L17.05 11L17.325 9.96875Z" fill="#F9F9F9"/>
<path d="M16.775 19.25C13.475 19.25 10.8625 16.4312 10.8625 12.9937C10.8625 9.55625 13.5437 6.7375 16.775 6.7375C17.05 6.7375 17.2562 6.7375 17.4625 6.80625C16.6375 6.39375 15.7438 6.1875 14.7812 6.1875C11.2063 6.1875 8.25 9.28125 8.25 13.0625C8.25 16.8438 11.2063 19.9375 14.7812 19.9375C15.8812 19.9375 16.9812 19.6625 17.875 19.1125C17.5312 19.1812 17.1875 19.25 16.775 19.25Z" fill="#F9F9F9"/>
</svg>
