<svg width="44" height="44" viewBox="0 0 44 44" fill="none" xmlns="http://www.w3.org/2000/svg">
<path d="M44 22C44 34.1502 34.1502 44 22 44C9.84981 44 0 34.1502 0 22C0 22.0052 22 0.00249219 22 0C34.1502 0 44 9.84981 44 22Z" fill="#0052B4"/>
<path d="M22 0C21.9988 0 21.9975 8.59375e-05 21.9963 8.59375e-05L22 0Z" fill="#F0F0F0"/>
<path d="M21.9412 22H22C22 21.9801 22 21.961 22 21.9411C21.9804 21.9608 21.9608 21.9804 21.9412 22Z" fill="#F0F0F0"/>
<path d="M22 11.4783C22 7.60728 22 5.07066 22 9.15527e-05H21.9963C9.84775 0.00206811 0 9.85093 0 22H11.4782V15.5365L17.9418 22H21.9412C21.9609 21.9804 21.9805 21.9608 22.0001 21.9411C22.0001 20.459 22.0001 19.1365 22.0001 17.9419L15.5365 11.4783H22Z" fill="#F0F0F0"/>
<path d="M11.1302 2.86954C7.68931 4.82883 4.8288 7.68934 2.86951 11.1302V22H8.60867V8.60879V8.6087H22C22 6.7986 22 5.07418 22 2.86954H11.1302Z" fill="#D80027"/>
<path d="M21.9999 19.2946L14.1837 11.4784H11.4783C11.4783 11.4783 11.4783 11.4784 11.4783 11.4784L21.9999 22H21.9999C21.9999 22 21.9999 20.1347 21.9999 19.2946Z" fill="#D80027"/>
<path d="M13.2684 25.8261L14.4758 28.3508L17.2023 27.7206L15.9813 30.2387L18.1739 31.9775L15.444 32.5928L15.4516 35.3913L13.2684 33.6405L11.0852 35.3913L11.0929 32.5928L8.36279 31.9775L10.5555 30.2387L9.33432 27.7206L12.061 28.3508L13.2684 25.8261Z" fill="#F0F0F0"/>
<path d="M32.9385 30.6087L33.5422 31.871L34.9055 31.5559L34.2949 32.815L35.3913 33.6844L34.0263 33.9921L34.0301 35.3913L32.9385 34.5159L31.8469 35.3913L31.8507 33.9921L30.4857 33.6844L31.582 32.815L30.9715 31.5559L32.3348 31.871L32.9385 30.6087Z" fill="#F0F0F0"/>
<path d="M27.3225 17.2174L27.9261 18.4798L29.2894 18.1646L28.6789 19.4237L29.7752 20.2931L28.4103 20.6008L28.414 22L27.3225 21.1246L26.2309 22L26.2346 20.6008L24.8696 20.2931L25.9659 19.4237L25.3554 18.1646L26.7187 18.4798L27.3225 17.2174Z" fill="#F0F0F0"/>
<path d="M32.9385 9.56519L33.5422 10.8276L34.9055 10.5125L34.295 11.7715L35.3912 12.6409L34.0263 12.9486L34.0301 14.3479L32.9385 13.4724L31.8469 14.3479L31.8507 12.9486L30.4857 12.6409L31.5819 11.7715L30.9715 10.5125L32.3348 10.8276L32.9385 9.56519Z" fill="#F0F0F0"/>
<path d="M37.8442 15.3044L38.4478 16.5668L39.8111 16.2516L39.2006 17.5106L40.2969 18.3801L38.9319 18.6878L38.9357 20.0869L37.8442 19.2116L36.7526 20.0869L36.7563 18.6878L35.3914 18.3801L36.4877 17.5106L35.8772 16.2516L37.2404 16.5668L37.8442 15.3044Z" fill="#F0F0F0"/>
<path d="M34.3364 22L34.8112 23.4615H36.3479L35.1047 24.3647L35.5796 25.8261L34.3364 24.9229L33.0932 25.8261L33.568 24.3647L32.3248 23.4615H33.8615L34.3364 22Z" fill="#F0F0F0"/>
</svg>
